<svg xmlns="http://www.w3.org/2000/svg" xmlns:xlink="http://www.w3.org/1999/xlink" width="3855" zoomAndPan="magnify" viewBox="0 0 2891.25 1133.999944" height="1511" preserveAspectRatio="xMidYMid meet" version="1.0"><defs><g/><clipPath id="614826acf0"><path d="M 340.613281 124.058594 L 962.203125 124.058594 L 962.203125 822.128906 L 340.613281 822.128906 Z M 340.613281 124.058594 " clip-rule="nonzero"/></clipPath><clipPath id="b05ede50d5"><path d="M 397 828 L 541 828 L 541 1103.492188 L 397 1103.492188 Z M 397 828 " clip-rule="nonzero"/></clipPath><clipPath id="d0d8f225c4"><path d="M 379 835 L 518 835 L 518 1100.691406 L 379 1100.691406 Z M 379 835 " clip-rule="nonzero"/></clipPath><clipPath id="0d8249a8ea"><path d="M 1281.636719 113.503906 L 1903.226562 113.503906 L 1903.226562 811.574219 L 1281.636719 811.574219 Z M 1281.636719 113.503906 " clip-rule="nonzero"/></clipPath><clipPath id="d1f0d9a25c"><path d="M 1338 817 L 1482 817 L 1482 1092.9375 L 1338 1092.9375 Z M 1338 817 " clip-rule="nonzero"/></clipPath><clipPath id="23413ab4e7"><path d="M 941.023438 781 L 1256 781 L 1256 1024 L 941.023438 1024 Z M 941.023438 781 " clip-rule="nonzero"/></clipPath><clipPath id="082837b50d"><path d="M 2240.636719 124.414062 L 2862.222656 124.414062 L 2862.222656 822.480469 L 2240.636719 822.480469 Z M 2240.636719 124.414062 " clip-rule="nonzero"/></clipPath><clipPath id="c1fa8ba52f"><path d="M 2297 828 L 2441 828 L 2441 1103.847656 L 2297 1103.847656 Z M 2297 828 " clip-rule="nonzero"/></clipPath><clipPath id="5bb5be33ca"><path d="M 1900.019531 792 L 2215 792 L 2215 1034 L 1900.019531 1034 Z M 1900.019531 792 " clip-rule="nonzero"/></clipPath><clipPath id="44e928dfcc"><path d="M 6.132812 782 L 323 782 L 323 1026 L 6.132812 1026 Z M 6.132812 782 " clip-rule="nonzero"/></clipPath><clipPath id="e50101176d"><path d="M 387 826 L 527 826 L 527 1092.648438 L 387 1092.648438 Z M 387 826 " clip-rule="nonzero"/></clipPath><clipPath id="581d0fd17e"><path d="M 1325 815 L 1466 815 L 1466 1081.378906 L 1325 1081.378906 Z M 1325 815 " clip-rule="nonzero"/></clipPath><clipPath id="6958d98beb"><path d="M 2284 833 L 2425 833 L 2425 1100.175781 L 2284 1100.175781 Z M 2284 833 " clip-rule="nonzero"/></clipPath></defs><path fill="#f9f9f9" d="M 651.566406 131.632812 L 348.722656 283.054688 L 651.566406 434.476562 L 954.410156 283.054688 Z M 651.566406 131.632812 " fill-opacity="1" fill-rule="nonzero"/><path fill="#e80303" d="M 651.566406 434.476562 L 651.566406 813.03125 L 954.410156 661.609375 L 954.410156 283.050781 Z M 651.566406 434.476562 " fill-opacity="1" fill-rule="nonzero"/><path fill="#cccccc" d="M 651.566406 434.476562 L 651.566406 813.03125 L 348.722656 661.609375 L 348.722656 283.050781 Z M 651.566406 434.476562 " fill-opacity="1" fill-rule="nonzero"/><g clip-path="url(#614826acf0)"><path stroke-linecap="butt" transform="matrix(15.142238, 0, 0, 15.142238, 197.299211, 95.864107)" fill="none" stroke-linejoin="miter" d="M 30.000003 2.375079 L 10.00007 12.375046 L 10.00007 37.374962 L 30.000003 47.374929 L 49.999936 37.374962 L 49.999936 12.375046 Z M 30.000003 2.375079 " stroke="#4d4d4d" stroke-width="1" stroke-opacity="1" stroke-miterlimit="4"/></g><path stroke-linecap="butt" transform="matrix(0.703126, -0.0905921, 0.0905921, 0.703126, 639.037341, 291.080802)" fill="none" stroke-linejoin="miter" d="M 168.359315 583.992378 L 211.95298 585.075743 L 223.019844 583.996067 L 234.085145 581.160638 L 245.154729 579.542425 L 256.217963 575.084511 L 266.207048 574.004861 L 276.73376 569.011155 L 314.254697 546.33992 L 330.316029 529.737106 L 335.851559 522.044774 L 341.921971 509.899145 L 345.297635 499.91187 L 348.536807 490.595896 L 351.912333 462.93086 L 350.696387 445.246452 L 342.462832 413.124574 L 336.387444 404.352937 L 322.081641 387.754224 L 312.09615 378.845467 L 303.186628 374.391999 L 293.335993 368.317279 L 250.145675 355.091462 L 239.082184 353.471577 L 228.012549 352.934232 L 216.402814 350.638414 L 200.342074 350.635781 L 171.057925 344.562762 L 150.67682 334.714614 L 142.307671 326.886331 L 140.14724 310.280231 L 142.848251 295.439375 L 149.598277 288.281298 L 157.831177 282.075388 L 166.7349 277.217016 L 176.5919 274.920351 L 194.27238 274.381675 L 211.949488 276.54256 L 221.940187 279.374222 L 231.926835 285.988687 L 241.240999 293.683173 L 249.604056 304.749554 L 261.753967 312.037183 L 287.799511 309.74295 L 302.64923 310.822883 L 313.716119 310.820987 L 323.704047 312.035628 L 334.229171 304.208389 L 338.550883 294.898559 L 336.390709 284.370258 L 335.308314 273.841932 L 319.790245 245.092607 L 307.64 228.493843 L 271.203533 203.121563 L 240.159976 192.594089 L 218.700516 188.140327 L 176.050657 187.061898 L 163.904858 190.43589 L 152.835953 190.970859 L 142.848909 192.595215 L 121.930587 199.205597 L 103.032746 210.270738 L 76.5791 228.495693 L 57.278796 254.542284 L 47.293787 284.91129 L 45.671269 312.035522 L 46.212664 329.177466 L 49.995004 351.175859 L 58.901867 370.612289 L 79.282354 395.988104 L 116.933893 416.500279 L 136.776384 423.112369 L 223.555504 433.104266 L 243.533355 442.417125 L 250.687174 449.027714 L 254.062729 462.929267 L 249.605939 476.693907 L 242.45563 485.061519 L 223.555496 493.298592 L 206.417002 494.373763 L 196.562723 496.131892 L 168.355725 493.297648 L 158.910386 488.302923 L 149.598289 482.230922 L 131.243772 462.388349 L 120.173228 457.934227 L 110.322876 459.015085 L 99.792457 457.397216 L 57.281408 459.553332 L 47.290488 464.010517 L 42.839816 475.614838 L 44.458029 486.684421 L 46.754216 497.752468 L 49.990128 507.736037 L 60.519302 528.120376 L 68.214404 535.272926 L 75.503054 543.639772 L 94.799054 555.786997 L 102.494182 564.017326 L 113.022765 569.01273 L 124.087819 572.388369 L 145.685384 580.08214 Z M 168.359315 583.992378 " stroke="#ffffff" stroke-width="20.730862" stroke-opacity="1" stroke-miterlimit="4"/><g fill="#000000" fill-opacity="1"><g transform="translate(705.289024, 696.4131)"><g><path d="M 105.011719 -9.972656 L 135.820312 -13.152344 L 143.492188 -14.929688 L 151.015625 -17.875 L 158.640625 -20.042969 L 166.015625 -24.15625 L 172.910156 -25.835938 L 179.84375 -30.285156 L 204.222656 -49.625 L 213.992188 -62.738281 L 217.179688 -68.683594 L 220.351562 -77.785156 L 221.785156 -85.082031 L 223.265625 -91.992188 L 223.09375 -111.726562 L 220.714844 -124.066406 L 211.976562 -145.859375 L 206.902344 -151.527344 L 195.292969 -161.886719 L 187.496094 -167.203125 L 180.875 -169.511719 L 173.328125 -172.886719 L 141.804688 -178.308594 L 133.882812 -178.472656 L 126.058594 -177.859375 L 117.695312 -178.363281 L 106.421875 -176.910156 L 85.269531 -178.53125 L 69.988281 -183.675781 L 63.453125 -188.367188 L 60.398438 -199.828125 L 60.988281 -210.574219 L 65.003906 -216.226562 L 70.28125 -221.253906 L 76.050781 -225.554688 L 82.847656 -228.007812 L 95.234375 -230 L 107.875 -230.046875 L 115.121094 -229.007812 L 122.71875 -225.242188 L 130.027344 -220.652344 L 136.859375 -213.628906 L 146.0625 -209.679688 L 164.132812 -213.585938 L 174.726562 -214.164062 L 182.5 -215.164062 L 189.597656 -215.289062 L 196.28125 -221.679688 L 198.539062 -228.691406 L 196.03125 -235.875 L 194.304688 -243.160156 L 180.816406 -261.96875 L 170.761719 -272.53125 L 142.804688 -287.105469 L 120.085938 -291.683594 L 104.527344 -292.839844 L 74.496094 -289.761719 L 66.246094 -286.328125 L 58.519531 -284.9375 L 51.675781 -282.871094 L 37.503906 -276.304688 L 25.289062 -266.828125 L 8.285156 -251.59375 L -2.964844 -231.574219 L -7.207031 -209.292969 L -5.921875 -190.097656 L -3.980469 -178.097656 L 0.746094 -162.898438 L 8.71875 -150.097656 L 25.402344 -134.070312 L 53.6875 -123.09375 L 68.28125 -120.230469 L 130.210938 -121.097656 L 145.054688 -116.292969 L 150.707031 -112.277344 L 154.292969 -102.863281 L 152.433594 -92.742188 L 148.132812 -86.261719 L 135.667969 -78.730469 L 123.71875 -76.398438 L 116.871094 -74.332031 L 96.796875 -73.71875 L 89.738281 -76.367188 L 82.582031 -79.792969 L 67.949219 -92.132812 L 59.777344 -94.242188 L 52.878906 -92.5625 L 45.34375 -92.777344 L 15.613281 -87.363281 L 9.019531 -83.355469 L 6.960938 -74.789062 L 9.128906 -67.167969 L 11.683594 -59.59375 L 14.917969 -52.898438 L 24.15625 -39.464844 L 30.25 -35.113281 L 36.054688 -29.933594 L 50.761719 -23.136719 L 56.953125 -18.007812 L 64.789062 -15.460938 L 72.863281 -14.128906 L 88.722656 -10.640625 Z M 105.011719 -9.972656 "/></g></g></g><path fill="#f1d903" d="M 120.269531 1034.085938 L 4.210938 1034.085938 L 4.210938 1014.433594 L 107.988281 1014.433594 L 183.558594 859.949219 L 249.695312 894.6875 L 312.640625 783.195312 L 329.738281 792.875 L 257.410156 920.925781 L 192.355469 886.726562 Z M 120.269531 1034.085938 " fill-opacity="1" fill-rule="nonzero"/><path fill="#f1d903" d="M 142.972656 373.84375 L 124.742188 368.929688 C 124.742188 335.8125 118.257812 245.644531 87.105469 226.433594 C 79.046875 221.519531 69.414062 222.109375 57.621094 228.203125 L 48.828125 210.710938 C 77.816406 195.625 97.128906 206.632812 108.234375 218.472656 C 123.761719 235.082031 134.617188 265.644531 140.417969 309.277344 C 140.464844 309.964844 147.148438 367.257812 142.972656 373.84375 Z M 142.972656 373.84375 " fill-opacity="1" fill-rule="nonzero"/><path fill="#f1d903" d="M 252.496094 399 L 234.265625 394.085938 C 234.265625 359.691406 227.683594 266.332031 195.988281 247.023438 C 188.078125 242.109375 178.695312 242.746094 167.246094 248.691406 L 158.15625 231.25 C 186.800781 216.507812 205.914062 227.269531 217.117188 239.0625 C 232.941406 255.964844 243.945312 287.410156 249.894531 332.421875 C 249.746094 332.960938 256.527344 392.367188 252.496094 399 Z M 252.496094 399 " fill-opacity="1" fill-rule="nonzero"/><path fill="#f1d903" d="M 406.589844 643.355469 C 401.503906 643.277344 396.449219 643.648438 391.425781 644.460938 C 386.40625 645.273438 381.492188 646.515625 376.691406 648.191406 C 371.890625 649.867188 367.269531 651.949219 362.832031 654.441406 C 358.398438 656.929688 354.210938 659.785156 350.277344 663.007812 C 348.019531 665.320312 345.660156 667.578125 343.25 669.742188 C 340.046875 673.21875 337.191406 676.960938 334.695312 680.976562 C 332.195312 684.992188 330.09375 689.207031 328.390625 693.617188 C 326.6875 698.027344 325.414062 702.5625 324.566406 707.214844 C 323.71875 711.867188 323.3125 716.554688 323.351562 721.285156 C 323.351562 764.230469 360.695312 799.164062 406.589844 799.164062 C 452.480469 799.164062 489.824219 764.230469 489.824219 721.285156 C 489.824219 678.339844 452.53125 643.355469 406.589844 643.355469 Z M 406.589844 643.355469 " fill-opacity="1" fill-rule="nonzero"/><path fill="#f1d903" d="M 338.042969 647.433594 C 343.164062 642.03125 347.816406 636.25 351.996094 630.089844 C 389.046875 575.203125 380.25 504.25 332.34375 471.917969 C 331.808594 471.5625 331.316406 471.152344 330.871094 470.691406 C 322.417969 462.289062 253.234375 426.859375 184.441406 410.84375 C 165.347656 406.164062 145.972656 403.65625 126.316406 403.324219 C 70.347656 403.324219 65.878906 432.804688 64.402344 442.632812 C 51.085938 530.785156 150.144531 628.515625 180.855469 656.375 L 181.496094 657.015625 C 186.421875 662.414062 191.90625 667.164062 197.957031 671.265625 C 201.867188 673.859375 205.949219 676.148438 210.203125 678.132812 C 214.457031 680.117188 218.835938 681.777344 223.335938 683.109375 C 227.835938 684.441406 232.410156 685.429688 237.058594 686.082031 C 241.707031 686.730469 246.378906 687.035156 251.070312 686.988281 C 254.597656 686.917969 258.113281 686.691406 261.617188 686.308594 C 265.125 685.925781 268.605469 685.390625 272.066406 684.699219 C 275.523438 684.007812 278.945312 683.167969 282.328125 682.171875 C 285.710938 681.179688 289.042969 680.039062 292.328125 678.75 C 295.609375 677.460938 298.828125 676.03125 301.984375 674.457031 C 305.140625 672.882812 308.21875 671.171875 311.222656 669.324219 C 314.226562 667.476562 317.144531 665.503906 319.972656 663.398438 C 322.804688 661.292969 325.535156 659.066406 328.167969 656.71875 C 331.253906 653.40625 334.546875 650.3125 338.042969 647.433594 Z M 303.058594 554.566406 C 302.265625 554.761719 301.464844 554.859375 300.648438 554.859375 C 300.109375 554.859375 299.570312 554.816406 299.035156 554.730469 C 298.5 554.640625 297.976562 554.511719 297.464844 554.335938 C 296.953125 554.160156 296.457031 553.945312 295.980469 553.6875 C 295.503906 553.433594 295.050781 553.140625 294.621094 552.808594 C 294.195312 552.476562 293.796875 552.113281 293.425781 551.714844 C 293.058594 551.316406 292.726562 550.894531 292.425781 550.441406 C 292.128906 549.988281 291.871094 549.515625 291.652344 549.019531 C 291.429688 548.523438 291.253906 548.015625 291.117188 547.488281 L 282.914062 515.402344 C 282.75 514.777344 282.648438 514.140625 282.613281 513.496094 C 282.574219 512.847656 282.601562 512.207031 282.691406 511.5625 C 282.78125 510.921875 282.929688 510.296875 283.144531 509.6875 C 283.355469 509.074219 283.628906 508.492188 283.957031 507.933594 C 284.285156 507.375 284.664062 506.855469 285.09375 506.371094 C 285.527344 505.890625 286 505.453125 286.519531 505.0625 C 287.035156 504.675781 287.585938 504.339844 288.167969 504.058594 C 288.75 503.777344 289.355469 503.554688 289.984375 503.394531 C 290.609375 503.234375 291.246094 503.132812 291.890625 503.097656 C 292.539062 503.0625 293.183594 503.089844 293.824219 503.179688 C 294.464844 503.273438 295.089844 503.425781 295.699219 503.640625 C 296.3125 503.851562 296.894531 504.125 297.453125 504.453125 C 298.007812 504.785156 298.527344 505.164062 299.011719 505.597656 C 299.492188 506.027344 299.925781 506.503906 300.316406 507.023438 C 300.703125 507.539062 301.039062 508.089844 301.316406 508.675781 C 301.597656 509.257812 301.816406 509.863281 301.976562 510.492188 L 310.183594 542.625 C 310.339844 543.25 310.4375 543.886719 310.46875 544.53125 C 310.503906 545.175781 310.472656 545.816406 310.378906 546.457031 C 310.285156 547.097656 310.132812 547.71875 309.914062 548.328125 C 309.699219 548.9375 309.425781 549.519531 309.09375 550.070312 C 308.765625 550.625 308.382812 551.144531 307.949219 551.621094 C 307.515625 552.101562 307.042969 552.535156 306.523438 552.917969 C 306.003906 553.304688 305.457031 553.636719 304.871094 553.914062 C 304.289062 554.191406 303.683594 554.40625 303.058594 554.566406 Z M 303.058594 554.566406 " fill-opacity="1" fill-rule="nonzero"/><path fill="#f1d903" d="M 650.007812 731.113281 C 546.234375 731.113281 467.960938 771.992188 467.960938 826.238281 C 467.960938 877.785156 551.492188 921.367188 650.007812 921.367188 C 748.527344 921.367188 832.109375 877.785156 832.109375 826.238281 C 832.109375 774.695312 748.722656 731.113281 650.007812 731.113281 Z M 650.007812 731.113281 " fill-opacity="1" fill-rule="nonzero"/><path fill="#f1d903" d="M 818.398438 1028.78125 L 718.359375 1028.78125 C 717.398438 1028.78125 716.460938 1028.648438 715.539062 1028.375 C 714.621094 1028.105469 713.757812 1027.707031 712.957031 1027.183594 C 712.152344 1026.660156 711.441406 1026.03125 710.820312 1025.300781 C 710.203125 1024.566406 709.699219 1023.761719 709.316406 1022.882812 L 615.957031 808.796875 L 522.058594 880.484375 L 510.117188 864.859375 L 613.992188 785.554688 C 614.289062 785.328125 614.59375 785.121094 614.914062 784.929688 C 615.230469 784.738281 615.5625 784.566406 615.898438 784.410156 C 616.238281 784.257812 616.582031 784.125 616.9375 784.007812 C 617.292969 783.894531 617.648438 783.800781 618.015625 783.726562 C 618.378906 783.652344 618.746094 783.597656 619.117188 783.566406 C 619.488281 783.535156 619.859375 783.523438 620.230469 783.535156 C 620.601562 783.542969 620.972656 783.574219 621.339844 783.625 C 621.707031 783.679688 622.070312 783.75 622.429688 783.84375 C 622.792969 783.9375 623.144531 784.050781 623.492188 784.183594 C 623.839844 784.316406 624.175781 784.46875 624.507812 784.640625 C 624.835938 784.8125 625.15625 785.003906 625.464844 785.210938 C 625.773438 785.417969 626.066406 785.644531 626.351562 785.886719 C 626.632812 786.125 626.902344 786.382812 627.15625 786.65625 C 627.410156 786.925781 627.644531 787.210938 627.867188 787.511719 C 628.089844 787.808594 628.292969 788.121094 628.476562 788.441406 C 628.664062 788.765625 628.832031 789.097656 628.980469 789.4375 L 724.84375 1009.125 L 818.449219 1009.125 Z M 818.398438 1028.78125 " fill-opacity="1" fill-rule="nonzero"/><g clip-path="url(#b05ede50d5)"><path fill="#f1d903" d="M 540.976562 1103.566406 L 478.621094 1103.566406 C 478.089844 1103.5625 477.558594 1103.515625 477.035156 1103.429688 C 476.507812 1103.339844 475.996094 1103.210938 475.488281 1103.039062 C 474.984375 1102.867188 474.5 1102.65625 474.027344 1102.402344 C 473.558594 1102.152344 473.113281 1101.863281 472.691406 1101.539062 C 472.265625 1101.214844 471.871094 1100.859375 471.507812 1100.472656 C 471.140625 1100.085938 470.8125 1099.667969 470.511719 1099.226562 C 470.214844 1098.785156 469.957031 1098.324219 469.734375 1097.839844 C 469.511719 1097.355469 469.328125 1096.855469 469.1875 1096.34375 L 397.105469 833.660156 L 416.070312 828.449219 L 486.140625 1083.960938 L 540.976562 1083.960938 Z M 540.976562 1103.566406 " fill-opacity="1" fill-rule="nonzero"/></g><path fill="#f1d903" d="M 112.480469 1033.601562 L 0.667969 1033.601562 L 0.667969 1014.667969 L 100.648438 1014.667969 L 173.453125 865.835938 L 237.171875 899.300781 L 297.8125 791.890625 L 314.289062 801.214844 L 244.605469 924.582031 L 181.929688 891.632812 Z M 112.480469 1033.601562 " fill-opacity="1" fill-rule="nonzero"/><path fill="#f1d903" d="M 134.351562 397.511719 L 116.789062 392.777344 C 116.789062 360.871094 110.539062 274.003906 80.527344 255.492188 C 72.765625 250.757812 63.484375 251.328125 52.125 257.195312 L 43.652344 240.34375 C 71.582031 225.8125 90.183594 236.414062 100.882812 247.824219 C 115.84375 263.824219 126.304688 293.269531 131.890625 335.304688 C 131.9375 335.96875 138.375 391.167969 134.351562 397.511719 Z M 134.351562 397.511719 " fill-opacity="1" fill-rule="nonzero"/><path fill="#f1d903" d="M 239.871094 421.746094 L 222.308594 417.011719 C 222.308594 383.875 215.964844 293.933594 185.429688 275.328125 C 177.808594 270.59375 168.769531 271.210938 157.738281 276.9375 L 148.980469 260.132812 C 176.578125 245.929688 194.992188 256.296875 205.785156 267.660156 C 221.03125 283.945312 231.632812 314.242188 237.363281 357.601562 C 237.21875 358.125 243.753906 415.355469 239.871094 421.746094 Z M 239.871094 421.746094 " fill-opacity="1" fill-rule="nonzero"/><path fill="#f1d903" d="M 388.324219 657.164062 C 383.425781 657.089844 378.558594 657.445312 373.71875 658.226562 C 368.882812 659.011719 364.148438 660.210938 359.523438 661.824219 C 354.894531 663.4375 350.445312 665.445312 346.171875 667.84375 C 341.898438 670.242188 337.867188 672.992188 334.074219 676.097656 C 331.898438 678.324219 329.625 680.503906 327.304688 682.585938 C 324.21875 685.933594 321.46875 689.542969 319.0625 693.410156 C 316.652344 697.277344 314.628906 701.335938 312.988281 705.585938 C 311.347656 709.839844 310.121094 714.203125 309.304688 718.6875 C 308.488281 723.167969 308.097656 727.6875 308.132812 732.242188 C 308.132812 773.617188 344.113281 807.277344 388.324219 807.277344 C 432.539062 807.277344 468.519531 773.617188 468.519531 732.242188 C 468.519531 690.871094 432.585938 657.164062 388.324219 657.164062 Z M 388.324219 657.164062 " fill-opacity="1" fill-rule="nonzero"/><path fill="#f1d903" d="M 322.289062 661.09375 C 327.222656 655.886719 331.703125 650.316406 335.730469 644.382812 C 371.425781 591.503906 362.953125 523.148438 316.796875 492 C 316.28125 491.65625 315.808594 491.261719 315.375 490.816406 C 307.234375 482.71875 240.582031 448.589844 174.304688 433.15625 C 155.910156 428.648438 137.242188 426.234375 118.304688 425.914062 C 64.386719 425.914062 60.078125 454.316406 58.65625 463.785156 C 45.828125 548.710938 141.265625 642.867188 170.851562 669.707031 L 171.464844 670.324219 C 176.210938 675.527344 181.496094 680.101562 187.324219 684.050781 C 191.09375 686.550781 195.027344 688.757812 199.125 690.667969 C 203.222656 692.582031 207.441406 694.179688 211.777344 695.464844 C 216.113281 696.746094 220.519531 697.703125 224.996094 698.328125 C 229.476562 698.953125 233.976562 699.246094 238.5 699.199219 C 245.304688 699.0625 252.046875 698.328125 258.722656 696.996094 C 265.398438 695.664062 271.90625 693.753906 278.242188 691.265625 C 284.582031 688.777344 290.648438 685.75 296.449219 682.183594 C 302.25 678.617188 307.691406 674.570312 312.773438 670.039062 C 315.75 666.847656 318.921875 663.867188 322.289062 661.09375 Z M 288.582031 571.621094 C 287.820312 571.8125 287.046875 571.90625 286.261719 571.90625 C 285.742188 571.90625 285.222656 571.867188 284.707031 571.78125 C 284.191406 571.695312 283.6875 571.570312 283.195312 571.402344 C 282.699219 571.234375 282.222656 571.023438 281.765625 570.777344 C 281.304688 570.53125 280.867188 570.246094 280.457031 569.929688 C 280.042969 569.609375 279.660156 569.257812 279.304688 568.875 C 278.949219 568.492188 278.628906 568.085938 278.339844 567.648438 C 278.054688 567.210938 277.804688 566.757812 277.59375 566.277344 C 277.382812 565.800781 277.210938 565.3125 277.078125 564.804688 L 269.171875 533.894531 C 269.015625 533.289062 268.921875 532.675781 268.882812 532.054688 C 268.847656 531.433594 268.875 530.8125 268.960938 530.195312 C 269.046875 529.578125 269.191406 528.972656 269.398438 528.382812 C 269.601562 527.796875 269.863281 527.234375 270.179688 526.695312 C 270.496094 526.15625 270.863281 525.65625 271.277344 525.191406 C 271.691406 524.726562 272.148438 524.304688 272.648438 523.929688 C 273.144531 523.554688 273.675781 523.234375 274.238281 522.960938 C 274.800781 522.691406 275.382812 522.480469 275.984375 522.324219 C 276.589844 522.167969 277.203125 522.074219 277.824219 522.039062 C 278.449219 522.003906 279.066406 522.03125 279.683594 522.117188 C 280.300781 522.203125 280.90625 522.351562 281.492188 522.558594 C 282.082031 522.765625 282.644531 523.027344 283.179688 523.34375 C 283.71875 523.660156 284.21875 524.027344 284.683594 524.445312 C 285.148438 524.859375 285.566406 525.320312 285.941406 525.816406 C 286.316406 526.316406 286.636719 526.847656 286.90625 527.410156 C 287.175781 527.972656 287.386719 528.554688 287.542969 529.160156 L 295.445312 560.117188 C 295.597656 560.722656 295.691406 561.335938 295.722656 561.957031 C 295.753906 562.578125 295.726562 563.195312 295.636719 563.808594 C 295.546875 564.425781 295.398438 565.027344 295.1875 565.613281 C 294.980469 566.199219 294.71875 566.757812 294.398438 567.292969 C 294.082031 567.828125 293.710938 568.324219 293.296875 568.785156 C 292.878906 569.25 292.421875 569.664062 291.921875 570.035156 C 291.421875 570.40625 290.890625 570.726562 290.332031 570.992188 C 289.769531 571.261719 289.1875 571.46875 288.582031 571.621094 Z M 288.582031 571.621094 " fill-opacity="1" fill-rule="nonzero"/><path fill="#f1d903" d="M 622.84375 741.710938 C 522.863281 741.710938 447.453125 781.097656 447.453125 833.359375 C 447.453125 883.019531 527.929688 925.007812 622.84375 925.007812 C 717.757812 925.007812 798.28125 883.019531 798.28125 833.359375 C 798.28125 783.699219 717.945312 741.710938 622.84375 741.710938 Z M 622.84375 741.710938 " fill-opacity="1" fill-rule="nonzero"/><path fill="#f1d903" d="M 785.074219 1028.492188 L 688.691406 1028.492188 C 687.769531 1028.492188 686.863281 1028.363281 685.976562 1028.101562 C 685.089844 1027.839844 684.261719 1027.457031 683.488281 1026.953125 C 682.710938 1026.449219 682.027344 1025.84375 681.429688 1025.136719 C 680.832031 1024.433594 680.351562 1023.65625 679.980469 1022.808594 L 590.039062 816.554688 L 499.574219 885.621094 L 488.070312 870.566406 L 588.144531 794.164062 C 588.429688 793.945312 588.722656 793.742188 589.03125 793.558594 C 589.339844 793.375 589.65625 793.210938 589.980469 793.0625 C 590.308594 792.914062 590.640625 792.785156 590.980469 792.671875 C 591.320312 792.5625 591.667969 792.472656 592.019531 792.402344 C 592.371094 792.328125 592.722656 792.277344 593.082031 792.246094 C 593.4375 792.214844 593.792969 792.207031 594.152344 792.214844 C 594.511719 792.226562 594.867188 792.253906 595.222656 792.304688 C 595.578125 792.355469 595.925781 792.425781 596.273438 792.515625 C 596.621094 792.605469 596.960938 792.714844 597.296875 792.839844 C 597.628906 792.96875 597.957031 793.117188 598.273438 793.28125 C 598.589844 793.449219 598.898438 793.632812 599.195312 793.832031 C 599.492188 794.03125 599.777344 794.25 600.050781 794.480469 C 600.320312 794.714844 600.582031 794.960938 600.824219 795.222656 C 601.070312 795.484375 601.296875 795.757812 601.511719 796.046875 C 601.722656 796.335938 601.921875 796.632812 602.097656 796.945312 C 602.277344 797.253906 602.4375 797.574219 602.582031 797.902344 L 694.941406 1009.554688 L 785.121094 1009.554688 Z M 785.074219 1028.492188 " fill-opacity="1" fill-rule="nonzero"/><g clip-path="url(#d0d8f225c4)"><path fill="#f1d903" d="M 517.796875 1100.539062 L 457.726562 1100.539062 C 457.210938 1100.539062 456.703125 1100.496094 456.195312 1100.410156 C 455.6875 1100.324219 455.191406 1100.199219 454.707031 1100.035156 C 454.222656 1099.867188 453.753906 1099.664062 453.300781 1099.421875 C 452.847656 1099.179688 452.417969 1098.902344 452.007812 1098.589844 C 451.601562 1098.277344 451.222656 1097.933594 450.871094 1097.5625 C 450.519531 1097.1875 450.199219 1096.789062 449.914062 1096.363281 C 449.625 1095.9375 449.375 1095.492188 449.160156 1095.023438 C 448.945312 1094.558594 448.773438 1094.078125 448.636719 1093.582031 L 379.191406 840.507812 L 397.460938 835.488281 L 464.96875 1081.652344 L 517.796875 1081.652344 Z M 517.796875 1100.539062 " fill-opacity="1" fill-rule="nonzero"/></g><path fill="#f9f9f9" d="M 1592.589844 121.078125 L 1289.742188 272.5 L 1592.589844 423.921875 L 1895.433594 272.5 Z M 1592.589844 121.078125 " fill-opacity="1" fill-rule="nonzero"/><path fill="#f1d903" d="M 1592.589844 423.917969 L 1592.589844 802.476562 L 1895.433594 651.054688 L 1895.433594 272.496094 Z M 1592.589844 423.917969 " fill-opacity="1" fill-rule="nonzero"/><path fill="#cccccc" d="M 1592.589844 423.917969 L 1592.589844 802.476562 L 1289.742188 651.054688 L 1289.742188 272.496094 Z M 1592.589844 423.917969 " fill-opacity="1" fill-rule="nonzero"/><g clip-path="url(#0d8249a8ea)"><path stroke-linecap="butt" transform="matrix(15.142238, 0, 0, 15.142238, 1138.3215, 85.308569)" fill="none" stroke-linejoin="miter" d="M 30.000079 2.374878 L 9.999888 12.375102 L 9.999888 37.375019 L 30.000079 47.374985 L 50.000012 37.375019 L 50.000012 12.375102 Z M 30.000079 2.374878 " stroke="#4d4d4d" stroke-width="1" stroke-opacity="1" stroke-miterlimit="4"/></g><path stroke-linecap="butt" transform="matrix(0.703126, -0.0905921, 0.0905921, 0.703126, 1559.400661, 297.102119)" fill="none" stroke-linejoin="miter" d="M 85.680538 563.47626 L 91.218246 574.006396 L 108.357727 580.081338 L 169.227282 579.540567 L 180.157223 574.00437 L 187.448677 556.866072 L 186.907282 539.724129 L 187.985884 528.118676 L 186.229736 504.364679 L 186.908559 493.835494 L 186.231433 483.309383 L 187.448768 471.705138 L 192.439386 460.092607 L 208.907884 454.558898 L 295.149316 454.020427 L 305.676029 449.02672 L 311.750723 438.098307 L 311.211472 425.812186 L 312.288522 392.745464 L 310.67235 382.220587 L 305.134616 370.612672 L 288.536418 365.079691 L 204.586532 365.080078 L 191.766403 360.622759 L 185.691493 350.640074 L 185.69351 318.11262 L 187.444622 306.504926 L 186.906255 297.057802 L 192.44362 285.987936 L 208.367412 280.456268 L 224.425433 280.997439 L 240.486852 279.916828 L 267.617253 281.534585 L 278.684117 280.454909 L 301.222486 281.536576 L 312.29207 279.918363 L 322.818782 274.924657 L 326.733662 263.856857 L 326.729046 253.328505 L 327.809889 242.395562 L 326.732959 231.86794 L 327.811561 220.262488 L 326.729845 208.650917 L 321.196897 198.12695 L 311.212316 193.13497 L 297.982337 191.513728 L 278.006887 193.13449 L 266.404179 192.59513 L 254.796033 193.132844 L 244.401627 192.05472 L 233.874005 193.13165 L 101.746658 193.130307 L 91.216521 198.668016 L 85.144043 209.19116 L 87.299849 275.463234 L 86.221222 285.990908 L 85.684351 364.53825 L 87.303747 374.391322 L 86.225119 384.918995 L 86.221551 395.98518 L 85.14499 408.135339 L 87.303405 425.274512 L 85.684904 539.726869 L 86.761885 552.410049 Z M 85.680538 563.47626 " stroke="#ffffff" stroke-width="20.730862" stroke-opacity="1" stroke-miterlimit="4"/><g fill="#000000" fill-opacity="1"><g transform="translate(1643.724889, 700.105917)"><g><path d="M 26.972656 -14.539062 L 31.8125 -7.65625 L 44.414062 -4.933594 L 87.121094 -10.828125 L 94.394531 -15.71875 L 97.894531 -28.417969 L 95.953125 -40.417969 L 95.679688 -48.679688 L 92.359375 -65.246094 L 91.796875 -72.679688 L 90.453125 -80.015625 L 90.179688 -88.277344 L 92.628906 -96.894531 L 103.789062 -102.28125 L 164.375 -110.484375 L 171.308594 -114.933594 L 174.582031 -123.257812 L 173.09375 -131.757812 L 170.867188 -155.183594 L 168.75 -162.417969 L 163.808594 -170.078125 L 151.648438 -172.464844 L 92.566406 -164.851562 L 83.222656 -166.808594 L 78.046875 -173.253906 L 75.09375 -196.1875 L 75.207031 -204.5 L 73.964844 -211.058594 L 76.851562 -219.332031 L 87.625 -224.671875 L 98.945312 -225.738281 L 110.117188 -227.964844 L 129.316406 -229.253906 L 136.988281 -231.035156 L 153.027344 -232.308594 L 160.648438 -234.476562 L 167.582031 -238.925781 L 169.304688 -247.050781 L 168.351562 -254.4375 L 168.128906 -262.3125 L 166.398438 -269.597656 L 166.125 -277.859375 L 164.296875 -285.921875 L 159.457031 -292.804688 L 152.007812 -295.402344 L 142.53125 -295.367188 L 128.6875 -292.398438 L 120.472656 -291.734375 L 112.363281 -290.296875 L 104.875 -290.121094 L 97.589844 -288.390625 L 4.691406 -276.421875 L -2.195312 -271.582031 L -5.519531 -263.648438 L 2.046875 -217.203125 L 2.222656 -209.71875 L 8.945312 -154.472656 L 11.011719 -147.625 L 11.183594 -140.140625 L 12.1875 -132.367188 L 12.511719 -123.714844 L 15.617188 -111.867188 L 24.820312 -31.253906 L 26.75 -22.414062 Z M 26.972656 -14.539062 "/></g></g></g><path fill="#1eab01" d="M 1061.292969 1023.53125 L 945.234375 1023.53125 L 945.234375 1003.875 L 1049.007812 1003.875 L 1124.582031 849.390625 L 1190.71875 884.132812 L 1253.660156 772.640625 L 1270.761719 782.320312 L 1198.433594 910.371094 L 1133.375 876.171875 Z M 1061.292969 1023.53125 " fill-opacity="1" fill-rule="nonzero"/><path fill="#1eab01" d="M 1083.996094 363.285156 L 1065.765625 358.375 C 1065.765625 325.253906 1059.277344 235.089844 1028.125 215.878906 C 1020.066406 210.964844 1010.4375 211.554688 998.644531 217.648438 L 989.847656 200.15625 C 1018.839844 185.070312 1038.148438 196.078125 1049.253906 207.917969 C 1064.78125 224.527344 1075.640625 255.089844 1081.4375 298.722656 C 1081.488281 299.410156 1088.171875 356.703125 1083.996094 363.285156 Z M 1083.996094 363.285156 " fill-opacity="1" fill-rule="nonzero"/><path fill="#1eab01" d="M 1193.519531 388.445312 L 1175.289062 383.53125 C 1175.289062 349.136719 1168.707031 255.777344 1137.011719 236.464844 C 1129.101562 231.550781 1119.714844 232.191406 1108.269531 238.136719 L 1099.175781 220.695312 C 1127.824219 205.953125 1146.9375 216.714844 1158.140625 228.507812 C 1173.964844 245.410156 1184.96875 276.855469 1190.914062 321.863281 C 1190.765625 322.40625 1197.546875 381.8125 1193.519531 388.445312 Z M 1193.519531 388.445312 " fill-opacity="1" fill-rule="nonzero"/><path fill="#1eab01" d="M 1347.609375 632.800781 C 1342.523438 632.722656 1337.472656 633.089844 1332.449219 633.902344 C 1327.429688 634.714844 1322.515625 635.960938 1317.714844 637.636719 C 1312.910156 639.3125 1308.292969 641.394531 1303.855469 643.882812 C 1299.417969 646.371094 1295.234375 649.230469 1291.300781 652.453125 C 1289.039062 654.761719 1286.679688 657.023438 1284.273438 659.183594 C 1281.066406 662.660156 1278.214844 666.40625 1275.714844 670.421875 C 1273.21875 674.4375 1271.117188 678.648438 1269.414062 683.0625 C 1267.710938 687.472656 1266.433594 692.003906 1265.585938 696.65625 C 1264.738281 701.308594 1264.335938 706 1264.375 710.730469 C 1264.375 753.675781 1301.71875 788.609375 1347.609375 788.609375 C 1393.503906 788.609375 1430.847656 753.675781 1430.847656 710.730469 C 1430.847656 667.785156 1393.554688 632.800781 1347.609375 632.800781 Z M 1347.609375 632.800781 " fill-opacity="1" fill-rule="nonzero"/><path fill="#1eab01" d="M 1279.066406 636.878906 C 1284.1875 631.472656 1288.839844 625.691406 1293.019531 619.53125 C 1330.070312 564.648438 1321.273438 493.695312 1273.367188 461.363281 C 1272.828125 461.007812 1272.339844 460.597656 1271.890625 460.132812 C 1263.441406 451.730469 1194.257812 416.304688 1125.464844 400.285156 C 1106.371094 395.605469 1086.996094 393.101562 1067.335938 392.769531 C 1011.371094 392.769531 1006.898438 422.25 1005.425781 432.078125 C 992.109375 520.226562 1091.167969 617.960938 1121.878906 645.820312 L 1122.515625 646.460938 C 1127.441406 651.859375 1132.929688 656.609375 1138.976562 660.707031 C 1142.890625 663.300781 1146.972656 665.589844 1151.226562 667.578125 C 1155.480469 669.5625 1159.855469 671.21875 1164.355469 672.550781 C 1168.859375 673.882812 1173.433594 674.875 1178.082031 675.527344 C 1182.730469 676.175781 1187.402344 676.476562 1192.09375 676.433594 C 1195.621094 676.363281 1199.136719 676.136719 1202.640625 675.753906 C 1206.148438 675.371094 1209.628906 674.835938 1213.085938 674.144531 C 1216.546875 673.453125 1219.964844 672.609375 1223.351562 671.617188 C 1226.734375 670.625 1230.066406 669.484375 1233.347656 668.195312 C 1236.632812 666.90625 1239.851562 665.472656 1243.007812 663.898438 C 1246.164062 662.328125 1249.242188 660.617188 1252.246094 658.769531 C 1255.25 656.921875 1258.167969 654.945312 1260.996094 652.84375 C 1263.824219 650.738281 1266.558594 648.511719 1269.1875 646.164062 C 1272.277344 642.851562 1275.570312 639.757812 1279.066406 636.878906 Z M 1244.082031 544.011719 C 1243.289062 544.207031 1242.488281 544.304688 1241.671875 544.304688 C 1241.132812 544.304688 1240.59375 544.261719 1240.058594 544.175781 C 1239.523438 544.085938 1239 543.953125 1238.488281 543.78125 C 1237.976562 543.605469 1237.480469 543.390625 1237.003906 543.132812 C 1236.527344 542.878906 1236.074219 542.582031 1235.644531 542.253906 C 1235.214844 541.921875 1234.816406 541.554688 1234.449219 541.160156 C 1234.082031 540.761719 1233.746094 540.335938 1233.449219 539.886719 C 1233.152344 539.433594 1232.894531 538.957031 1232.671875 538.464844 C 1232.453125 537.96875 1232.277344 537.457031 1232.140625 536.933594 L 1223.933594 504.847656 C 1223.773438 504.222656 1223.671875 503.585938 1223.632812 502.941406 C 1223.597656 502.292969 1223.621094 501.648438 1223.710938 501.007812 C 1223.800781 500.367188 1223.953125 499.742188 1224.167969 499.128906 C 1224.378906 498.519531 1224.652344 497.933594 1224.980469 497.378906 C 1225.308594 496.820312 1225.6875 496.300781 1226.117188 495.816406 C 1226.550781 495.332031 1227.023438 494.898438 1227.539062 494.507812 C 1228.058594 494.117188 1228.605469 493.785156 1229.191406 493.503906 C 1229.773438 493.222656 1230.378906 493 1231.003906 492.839844 C 1231.632812 492.675781 1232.269531 492.578125 1232.914062 492.542969 C 1233.5625 492.507812 1234.203125 492.535156 1234.84375 492.625 C 1235.484375 492.714844 1236.113281 492.867188 1236.722656 493.082031 C 1237.332031 493.296875 1237.917969 493.570312 1238.472656 493.898438 C 1239.03125 494.230469 1239.550781 494.609375 1240.03125 495.042969 C 1240.515625 495.472656 1240.949219 495.949219 1241.335938 496.464844 C 1241.726562 496.984375 1242.058594 497.535156 1242.339844 498.117188 C 1242.621094 498.703125 1242.839844 499.308594 1243 499.933594 L 1251.207031 532.070312 C 1251.363281 532.695312 1251.460938 533.332031 1251.492188 533.976562 C 1251.527344 534.621094 1251.496094 535.261719 1251.402344 535.902344 C 1251.308594 536.539062 1251.152344 537.164062 1250.9375 537.773438 C 1250.722656 538.378906 1250.449219 538.960938 1250.117188 539.515625 C 1249.785156 540.070312 1249.40625 540.585938 1248.972656 541.066406 C 1248.539062 541.546875 1248.0625 541.980469 1247.546875 542.363281 C 1247.027344 542.75 1246.476562 543.082031 1245.894531 543.359375 C 1245.3125 543.636719 1244.707031 543.851562 1244.082031 544.011719 Z M 1244.082031 544.011719 " fill-opacity="1" fill-rule="nonzero"/><path fill="#1eab01" d="M 1591.03125 720.558594 C 1487.253906 720.558594 1408.980469 761.4375 1408.980469 815.683594 C 1408.980469 867.226562 1492.511719 910.8125 1591.03125 910.8125 C 1689.550781 910.8125 1773.128906 867.226562 1773.128906 815.683594 C 1773.128906 764.140625 1689.746094 720.558594 1591.03125 720.558594 Z M 1591.03125 720.558594 " fill-opacity="1" fill-rule="nonzero"/><path fill="#1eab01" d="M 1759.421875 1018.222656 L 1659.378906 1018.222656 C 1658.421875 1018.226562 1657.480469 1018.09375 1656.5625 1017.820312 C 1655.640625 1017.550781 1654.78125 1017.152344 1653.976562 1016.628906 C 1653.175781 1016.105469 1652.460938 1015.476562 1651.84375 1014.742188 C 1651.222656 1014.011719 1650.722656 1013.207031 1650.339844 1012.328125 L 1556.980469 798.242188 L 1463.082031 869.929688 L 1451.140625 854.304688 L 1555.015625 775 C 1555.308594 774.773438 1555.617188 774.566406 1555.9375 774.375 C 1556.253906 774.183594 1556.582031 774.011719 1556.921875 773.855469 C 1557.261719 773.703125 1557.605469 773.566406 1557.960938 773.453125 C 1558.3125 773.339844 1558.671875 773.246094 1559.035156 773.171875 C 1559.402344 773.097656 1559.769531 773.042969 1560.140625 773.011719 C 1560.507812 772.980469 1560.878906 772.96875 1561.253906 772.976562 C 1561.625 772.988281 1561.992188 773.019531 1562.363281 773.070312 C 1562.730469 773.121094 1563.09375 773.195312 1563.453125 773.289062 C 1563.8125 773.382812 1564.167969 773.496094 1564.515625 773.628906 C 1564.863281 773.761719 1565.199219 773.914062 1565.53125 774.085938 C 1565.859375 774.257812 1566.179688 774.449219 1566.488281 774.65625 C 1566.792969 774.863281 1567.089844 775.089844 1567.371094 775.328125 C 1567.65625 775.570312 1567.921875 775.828125 1568.175781 776.101562 C 1568.429688 776.371094 1568.667969 776.65625 1568.890625 776.957031 C 1569.109375 777.253906 1569.3125 777.566406 1569.5 777.886719 C 1569.6875 778.207031 1569.851562 778.539062 1570 778.882812 L 1665.867188 998.570312 L 1759.46875 998.570312 Z M 1759.421875 1018.222656 " fill-opacity="1" fill-rule="nonzero"/><g clip-path="url(#d1f0d9a25c)"><path fill="#1eab01" d="M 1482 1093.007812 L 1419.644531 1093.007812 C 1419.113281 1093.007812 1418.582031 1092.960938 1418.058594 1092.875 C 1417.53125 1092.785156 1417.015625 1092.65625 1416.511719 1092.484375 C 1416.007812 1092.3125 1415.519531 1092.097656 1415.050781 1091.847656 C 1414.582031 1091.597656 1414.136719 1091.308594 1413.710938 1090.984375 C 1413.289062 1090.660156 1412.894531 1090.304688 1412.53125 1089.917969 C 1412.164062 1089.527344 1411.832031 1089.113281 1411.535156 1088.671875 C 1411.238281 1088.230469 1410.976562 1087.765625 1410.753906 1087.285156 C 1410.53125 1086.800781 1410.351562 1086.300781 1410.210938 1085.785156 L 1338.128906 823.105469 L 1357.09375 817.894531 L 1427.160156 1073.402344 L 1482 1073.402344 Z M 1482 1093.007812 " fill-opacity="1" fill-rule="nonzero"/></g><g clip-path="url(#23413ab4e7)"><path fill="#1eab01" d="M 1053.503906 1023.046875 L 941.691406 1023.046875 L 941.691406 1004.113281 L 1041.667969 1004.113281 L 1114.476562 855.277344 L 1178.195312 888.746094 L 1238.835938 781.335938 L 1255.308594 790.660156 L 1185.628906 914.027344 L 1122.949219 881.078125 Z M 1053.503906 1023.046875 " fill-opacity="1" fill-rule="nonzero"/></g><path fill="#1eab01" d="M 1075.375 386.953125 L 1057.8125 382.21875 C 1057.8125 350.3125 1051.5625 263.445312 1021.550781 244.9375 C 1013.785156 240.203125 1004.507812 240.773438 993.148438 246.640625 L 984.671875 229.789062 C 1012.601562 215.257812 1031.207031 225.859375 1041.90625 237.269531 C 1056.867188 253.269531 1067.328125 282.714844 1072.914062 324.75 C 1072.960938 325.414062 1079.398438 380.609375 1075.375 386.953125 Z M 1075.375 386.953125 " fill-opacity="1" fill-rule="nonzero"/><path fill="#1eab01" d="M 1180.894531 411.191406 L 1163.332031 406.457031 C 1163.332031 373.320312 1156.988281 283.375 1126.453125 264.773438 C 1118.832031 260.039062 1109.789062 260.652344 1098.761719 266.382812 L 1090.003906 249.578125 C 1117.601562 235.375 1136.015625 245.742188 1146.808594 257.105469 C 1162.050781 273.386719 1172.65625 303.683594 1178.382812 347.046875 C 1178.242188 347.566406 1184.773438 404.800781 1180.894531 411.191406 Z M 1180.894531 411.191406 " fill-opacity="1" fill-rule="nonzero"/><path fill="#1eab01" d="M 1329.347656 646.609375 C 1324.449219 646.535156 1319.578125 646.890625 1314.742188 647.671875 C 1309.902344 648.457031 1305.171875 649.652344 1300.546875 651.269531 C 1295.917969 652.882812 1291.46875 654.890625 1287.195312 657.289062 C 1282.921875 659.683594 1278.886719 662.4375 1275.097656 665.542969 C 1272.921875 667.769531 1270.648438 669.945312 1268.328125 672.03125 C 1265.238281 675.378906 1262.492188 678.988281 1260.085938 682.855469 C 1257.675781 686.722656 1255.652344 690.78125 1254.011719 695.03125 C 1252.371094 699.28125 1251.140625 703.648438 1250.324219 708.132812 C 1249.507812 712.613281 1249.121094 717.132812 1249.15625 721.6875 C 1249.15625 763.0625 1285.132812 796.71875 1329.347656 796.71875 C 1373.5625 796.71875 1409.539062 763.0625 1409.539062 721.6875 C 1409.539062 680.3125 1373.609375 646.609375 1329.347656 646.609375 Z M 1329.347656 646.609375 " fill-opacity="1" fill-rule="nonzero"/><path fill="#1eab01" d="M 1263.308594 650.539062 C 1268.246094 645.332031 1272.726562 639.761719 1276.753906 633.828125 C 1312.449219 580.949219 1303.972656 512.59375 1257.820312 481.441406 C 1257.304688 481.101562 1256.828125 480.707031 1256.398438 480.257812 C 1248.257812 472.164062 1181.601562 438.03125 1115.328125 422.601562 C 1096.933594 418.089844 1078.265625 415.675781 1059.328125 415.359375 C 1005.40625 415.359375 1001.101562 443.761719 999.679688 453.230469 C 986.851562 538.15625 1082.285156 632.3125 1111.875 659.152344 L 1112.488281 659.769531 C 1117.234375 664.96875 1122.519531 669.546875 1128.347656 673.496094 C 1132.117188 675.996094 1136.050781 678.203125 1140.148438 680.113281 C 1144.246094 682.027344 1148.460938 683.625 1152.796875 684.90625 C 1157.132812 686.191406 1161.542969 687.144531 1166.019531 687.773438 C 1170.5 688.398438 1175 688.691406 1179.519531 688.644531 C 1186.328125 688.507812 1193.070312 687.773438 1199.746094 686.441406 C 1206.421875 685.105469 1212.929688 683.195312 1219.265625 680.707031 C 1225.605469 678.21875 1231.671875 675.195312 1237.472656 671.628906 C 1243.273438 668.0625 1248.714844 664.015625 1253.796875 659.484375 C 1256.769531 656.292969 1259.941406 653.3125 1263.308594 650.539062 Z M 1229.605469 561.066406 C 1228.84375 561.253906 1228.070312 561.351562 1227.285156 561.351562 C 1226.761719 561.351562 1226.246094 561.308594 1225.730469 561.226562 C 1225.214844 561.140625 1224.710938 561.015625 1224.21875 560.84375 C 1223.722656 560.675781 1223.246094 560.46875 1222.785156 560.222656 C 1222.328125 559.976562 1221.890625 559.691406 1221.476562 559.375 C 1221.066406 559.054688 1220.679688 558.703125 1220.328125 558.320312 C 1219.972656 557.9375 1219.652344 557.527344 1219.363281 557.09375 C 1219.074219 556.65625 1218.828125 556.199219 1218.613281 555.722656 C 1218.402344 555.246094 1218.230469 554.753906 1218.101562 554.25 L 1210.195312 523.335938 C 1210.039062 522.734375 1209.941406 522.121094 1209.90625 521.5 C 1209.871094 520.875 1209.894531 520.257812 1209.980469 519.636719 C 1210.070312 519.019531 1210.214844 518.417969 1210.417969 517.828125 C 1210.625 517.242188 1210.886719 516.675781 1211.203125 516.140625 C 1211.519531 515.601562 1211.882812 515.101562 1212.300781 514.636719 C 1212.714844 514.171875 1213.171875 513.75 1213.667969 513.375 C 1214.167969 513 1214.699219 512.675781 1215.257812 512.40625 C 1215.820312 512.136719 1216.402344 511.921875 1217.007812 511.769531 C 1217.613281 511.613281 1218.226562 511.515625 1218.847656 511.480469 C 1219.46875 511.449219 1220.089844 511.472656 1220.707031 511.5625 C 1221.324219 511.648438 1221.929688 511.796875 1222.515625 512.003906 C 1223.105469 512.210938 1223.667969 512.472656 1224.203125 512.789062 C 1224.742188 513.105469 1225.242188 513.472656 1225.707031 513.890625 C 1226.167969 514.304688 1226.589844 514.761719 1226.960938 515.261719 C 1227.335938 515.761719 1227.660156 516.292969 1227.929688 516.855469 C 1228.199219 517.417969 1228.410156 518 1228.5625 518.605469 L 1236.46875 549.5625 C 1236.621094 550.167969 1236.714844 550.777344 1236.746094 551.398438 C 1236.777344 552.019531 1236.75 552.640625 1236.660156 553.253906 C 1236.570312 553.871094 1236.421875 554.472656 1236.210938 555.058594 C 1236.003906 555.644531 1235.738281 556.203125 1235.421875 556.738281 C 1235.101562 557.273438 1234.734375 557.769531 1234.316406 558.230469 C 1233.902344 558.691406 1233.441406 559.109375 1232.945312 559.480469 C 1232.445312 559.851562 1231.914062 560.171875 1231.351562 560.4375 C 1230.789062 560.707031 1230.207031 560.914062 1229.605469 561.066406 Z M 1229.605469 561.066406 " fill-opacity="1" fill-rule="nonzero"/><path fill="#1eab01" d="M 1563.867188 731.15625 C 1463.886719 731.15625 1388.476562 770.542969 1388.476562 822.804688 C 1388.476562 872.460938 1468.949219 914.453125 1563.867188 914.453125 C 1658.78125 914.453125 1739.304688 872.460938 1739.304688 822.804688 C 1739.304688 773.144531 1658.96875 731.15625 1563.867188 731.15625 Z M 1563.867188 731.15625 " fill-opacity="1" fill-rule="nonzero"/><path fill="#1eab01" d="M 1726.097656 1017.933594 L 1629.714844 1017.933594 C 1628.789062 1017.9375 1627.886719 1017.808594 1627 1017.546875 C 1626.113281 1017.285156 1625.28125 1016.902344 1624.507812 1016.398438 C 1623.734375 1015.894531 1623.050781 1015.289062 1622.453125 1014.582031 C 1621.855469 1013.878906 1621.375 1013.101562 1621.003906 1012.253906 L 1531.058594 806 L 1440.59375 875.066406 L 1429.089844 860.011719 L 1529.167969 783.605469 C 1529.449219 783.390625 1529.746094 783.1875 1530.054688 783.003906 C 1530.359375 782.820312 1530.675781 782.652344 1531.003906 782.503906 C 1531.328125 782.355469 1531.664062 782.226562 1532.003906 782.117188 C 1532.34375 782.007812 1532.691406 781.917969 1533.042969 781.84375 C 1533.390625 781.773438 1533.746094 781.722656 1534.101562 781.691406 C 1534.460938 781.660156 1534.816406 781.648438 1535.175781 781.660156 C 1535.535156 781.667969 1535.890625 781.699219 1536.246094 781.75 C 1536.597656 781.800781 1536.949219 781.867188 1537.296875 781.957031 C 1537.644531 782.046875 1537.984375 782.15625 1538.316406 782.285156 C 1538.652344 782.414062 1538.980469 782.5625 1539.296875 782.726562 C 1539.613281 782.890625 1539.921875 783.074219 1540.21875 783.277344 C 1540.515625 783.476562 1540.800781 783.691406 1541.070312 783.925781 C 1541.34375 784.15625 1541.601562 784.40625 1541.847656 784.667969 C 1542.089844 784.929688 1542.320312 785.203125 1542.53125 785.492188 C 1542.746094 785.78125 1542.941406 786.078125 1543.121094 786.390625 C 1543.300781 786.699219 1543.460938 787.019531 1543.605469 787.347656 L 1635.960938 999 L 1726.144531 999 Z M 1726.097656 1017.933594 " fill-opacity="1" fill-rule="nonzero"/><path fill="#1eab01" d="M 1458.820312 1089.984375 L 1398.746094 1089.984375 C 1398.234375 1089.984375 1397.722656 1089.9375 1397.21875 1089.855469 C 1396.710938 1089.769531 1396.214844 1089.644531 1395.730469 1089.476562 C 1395.242188 1089.3125 1394.773438 1089.109375 1394.320312 1088.867188 C 1393.871094 1088.625 1393.441406 1088.347656 1393.03125 1088.035156 C 1392.625 1087.722656 1392.246094 1087.378906 1391.894531 1087.007812 C 1391.542969 1086.632812 1391.222656 1086.230469 1390.933594 1085.804688 C 1390.648438 1085.382812 1390.398438 1084.933594 1390.183594 1084.46875 C 1389.96875 1084 1389.792969 1083.519531 1389.65625 1083.027344 L 1320.210938 829.953125 L 1338.484375 824.933594 L 1405.988281 1071.097656 L 1458.820312 1071.097656 Z M 1458.820312 1089.984375 " fill-opacity="1" fill-rule="nonzero"/><path fill="#f9f9f9" d="M 2551.585938 131.988281 L 2248.742188 283.410156 L 2551.585938 434.832031 L 2854.433594 283.410156 Z M 2551.585938 131.988281 " fill-opacity="1" fill-rule="nonzero"/><path fill="#1eab01" d="M 2551.585938 434.828125 L 2551.585938 813.382812 L 2854.433594 661.960938 L 2854.433594 283.40625 Z M 2551.585938 434.828125 " fill-opacity="1" fill-rule="nonzero"/><path fill="#cccccc" d="M 2551.585938 434.828125 L 2551.585938 813.382812 L 2248.742188 661.960938 L 2248.742188 283.40625 Z M 2551.585938 434.828125 " fill-opacity="1" fill-rule="nonzero"/><g clip-path="url(#082837b50d)"><path stroke-linecap="butt" transform="matrix(15.142238, 0, 0, 15.142238, 2097.320701, 96.217586)" fill="none" stroke-linejoin="miter" d="M 29.999874 2.374953 L 9.999941 12.374919 L 9.999941 37.375094 L 29.999874 47.37506 L 50.000065 37.375094 L 50.000065 12.374919 Z M 29.999874 2.374953 " stroke="#4d4d4d" stroke-width="1" stroke-opacity="1" stroke-miterlimit="4"/></g><path stroke-linecap="butt" transform="matrix(0.703126, -0.0905921, 0.0905921, 0.703126, 2542.075791, 297.102119)" fill="none" stroke-linejoin="miter" d="M 147.534448 561.856762 L 151.988938 573.463999 L 163.598046 578.998619 L 174.125668 577.921689 L 185.192583 578.997571 L 195.720205 577.920641 L 229.997949 577.920391 L 241.065944 573.468645 L 245.386797 562.397597 L 244.848404 551.872694 L 246.060953 539.184502 L 245.38465 517.052964 L 243.768 507.739134 L 245.385844 496.130937 L 246.60009 462.387448 L 245.386468 452.403324 L 247.138403 429.190204 L 244.844487 319.189309 L 246.603809 308.121561 L 245.385375 295.97571 L 249.838818 285.98841 L 261.987312 280.998101 L 271.43514 280.454269 L 282.50407 280.997079 L 292.48769 279.916725 L 322.856867 280.457331 L 335.544603 275.464277 L 341.076503 264.393707 L 339.999547 252.788306 L 341.075884 207.438182 L 335.545151 196.508946 L 324.475285 190.971581 L 311.247399 192.050603 L 302.341506 190.975374 L 291.813858 190.974525 L 279.666496 192.592763 L 268.599606 192.59466 L 257.666664 191.513816 L 246.599774 191.515713 L 233.780606 193.130728 L 69.11961 192.05435 L 56.973861 197.5839 L 51.441961 208.65447 L 50.901776 263.856986 L 56.976032 276.000693 L 68.040433 281.537354 L 82.349523 279.914304 L 131.612973 280.455954 L 141.463607 286.530674 L 146.996555 297.054641 L 148.748373 357.924675 L 146.995477 375.065462 L 148.211644 385.461024 L 146.997029 396.526731 L 146.995357 418.659806 L 148.753942 434.719688 L 146.459059 451.323978 L 146.994733 462.387418 L 146.454668 473.99559 L 148.212687 507.738698 L 146.998072 518.804405 Z M 147.534448 561.856762 " stroke="#ffffff" stroke-width="20.730862" stroke-opacity="1" stroke-miterlimit="4"/><g fill="#000000" fill-opacity="1"><g transform="translate(2623.675404, 700.456961)"><g><path d="M 73.078125 -21.664062 L 77.238281 -13.902344 L 85.902344 -11.066406 L 93.1875 -12.796875 L 101.0625 -13.019531 L 108.347656 -14.75 L 132.449219 -17.855469 L 139.820312 -21.964844 L 141.929688 -30.140625 L 140.589844 -37.476562 L 140.214844 -46.515625 L 137.820312 -62.015625 L 135.804688 -68.472656 L 135.917969 -76.785156 L 133.640625 -100.597656 L 131.960938 -107.492188 L 131.023438 -123.96875 L 119.503906 -201.121094 L 119.667969 -209.042969 L 117.789062 -217.496094 L 119.996094 -224.894531 L 128.097656 -229.492188 L 134.65625 -230.734375 L 142.480469 -231.347656 L 149.378906 -233.023438 L 170.804688 -235.390625 L 179.296875 -240.039062 L 182.179688 -248.316406 L 180.351562 -256.378906 L 177.023438 -288.351562 L 172.132812 -295.625 L 163.859375 -298.511719 L 154.628906 -296.53125 L 148.3125 -296.507812 L 140.925781 -295.554688 L 132.523438 -293.289062 L 124.75 -292.285156 L 116.875 -292.0625 L 109.101562 -291.058594 L 100.3125 -288.742188 L -15.621094 -274.59375 L -23.671875 -269.605469 L -26.558594 -261.332031 L -21.9375 -222.410156 L -16.5625 -214.410156 L -8.285156 -211.527344 L 1.671875 -213.992188 L 36.316406 -218.0625 L 43.863281 -214.6875 L 48.699219 -207.804688 L 55.375 -165.195312 L 55.761719 -152.996094 L 57.492188 -145.710938 L 57.714844 -137.835938 L 59.71875 -122.289062 L 62.335938 -111.167969 L 62.285156 -99.304688 L 63.675781 -91.582031 L 64.339844 -83.367188 L 68.558594 -59.808594 L 68.785156 -51.933594 Z M 73.078125 -21.664062 "/></g></g></g><path fill="#e80303" d="M 2020.292969 1034.441406 L 1904.234375 1034.441406 L 1904.234375 1014.785156 L 2008.007812 1014.785156 L 2083.578125 860.300781 L 2149.71875 895.039062 L 2212.660156 783.550781 L 2229.761719 793.230469 L 2157.433594 921.277344 L 2092.375 887.082031 Z M 2020.292969 1034.441406 " fill-opacity="1" fill-rule="nonzero"/><path fill="#e80303" d="M 2042.992188 374.195312 L 2024.765625 369.28125 C 2024.765625 336.164062 2018.277344 246 1987.125 226.789062 C 1979.066406 221.875 1969.4375 222.464844 1957.644531 228.554688 L 1948.847656 211.0625 C 1977.839844 195.980469 1997.148438 206.984375 2008.253906 218.828125 C 2023.78125 235.433594 2034.640625 265.996094 2040.4375 309.632812 C 2040.488281 310.320312 2047.171875 367.613281 2042.992188 374.195312 Z M 2042.992188 374.195312 " fill-opacity="1" fill-rule="nonzero"/><path fill="#e80303" d="M 2152.519531 399.355469 L 2134.289062 394.441406 C 2134.289062 360.042969 2127.703125 266.6875 2096.011719 247.375 C 2088.101562 242.460938 2078.714844 243.101562 2067.265625 249.046875 L 2058.175781 231.601562 C 2086.824219 216.863281 2105.9375 227.621094 2117.140625 239.414062 C 2132.960938 256.316406 2143.96875 287.765625 2149.914062 332.773438 C 2149.765625 333.316406 2156.546875 392.71875 2152.519531 399.355469 Z M 2152.519531 399.355469 " fill-opacity="1" fill-rule="nonzero"/><path fill="#e80303" d="M 2306.609375 643.707031 C 2301.523438 643.632812 2296.46875 644 2291.449219 644.8125 C 2286.425781 645.625 2281.515625 646.871094 2276.710938 648.546875 C 2271.910156 650.222656 2267.289062 652.304688 2262.855469 654.792969 C 2258.417969 657.28125 2254.234375 660.136719 2250.300781 663.363281 C 2248.039062 665.671875 2245.679688 667.933594 2243.273438 670.09375 C 2240.066406 673.570312 2237.214844 677.316406 2234.714844 681.332031 C 2232.214844 685.347656 2230.117188 689.558594 2228.414062 693.96875 C 2226.710938 698.382812 2225.433594 702.914062 2224.585938 707.566406 C 2223.738281 712.21875 2223.335938 716.910156 2223.371094 721.636719 C 2223.371094 764.582031 2260.714844 799.519531 2306.609375 799.519531 C 2352.503906 799.519531 2389.847656 764.582031 2389.847656 721.636719 C 2389.847656 678.691406 2352.550781 643.707031 2306.609375 643.707031 Z M 2306.609375 643.707031 " fill-opacity="1" fill-rule="nonzero"/><path fill="#e80303" d="M 2238.0625 647.785156 C 2243.1875 642.382812 2247.835938 636.601562 2252.019531 630.441406 C 2289.066406 575.554688 2280.273438 504.605469 2232.363281 472.273438 C 2231.828125 471.914062 2231.335938 471.507812 2230.890625 471.042969 C 2222.4375 462.640625 2153.253906 427.214844 2084.464844 411.195312 C 2065.371094 406.515625 2045.992188 404.007812 2026.335938 403.675781 C 1970.371094 403.675781 1965.898438 433.160156 1964.425781 442.988281 C 1951.109375 531.136719 2050.167969 628.871094 2080.878906 656.730469 L 2081.515625 657.367188 C 2086.441406 662.765625 2091.929688 667.515625 2097.976562 671.617188 C 2101.890625 674.210938 2105.972656 676.5 2110.226562 678.484375 C 2114.480469 680.46875 2118.855469 682.128906 2123.355469 683.460938 C 2127.855469 684.792969 2132.429688 685.785156 2137.082031 686.433594 C 2141.730469 687.085938 2146.398438 687.386719 2151.09375 687.339844 C 2154.617188 687.269531 2158.132812 687.042969 2161.640625 686.660156 C 2165.144531 686.28125 2168.628906 685.742188 2172.085938 685.050781 C 2175.542969 684.363281 2178.964844 683.519531 2182.347656 682.527344 C 2185.730469 681.53125 2189.066406 680.390625 2192.347656 679.101562 C 2195.628906 677.8125 2198.851562 676.382812 2202.003906 674.808594 C 2205.160156 673.234375 2208.242188 671.523438 2211.246094 669.679688 C 2214.25 667.832031 2217.167969 665.855469 2219.996094 663.75 C 2222.824219 661.644531 2225.554688 659.421875 2228.1875 657.074219 C 2231.277344 653.761719 2234.570312 650.664062 2238.0625 647.785156 Z M 2203.078125 554.917969 C 2202.289062 555.113281 2201.484375 555.214844 2200.671875 555.214844 C 2200.128906 555.214844 2199.59375 555.171875 2199.058594 555.082031 C 2198.523438 554.996094 2198 554.863281 2197.488281 554.6875 C 2196.972656 554.515625 2196.480469 554.300781 2196 554.042969 C 2195.523438 553.785156 2195.070312 553.492188 2194.644531 553.160156 C 2194.214844 552.828125 2193.816406 552.464844 2193.449219 552.066406 C 2193.078125 551.671875 2192.746094 551.246094 2192.449219 550.792969 C 2192.152344 550.339844 2191.890625 549.867188 2191.671875 549.371094 C 2191.453125 548.878906 2191.273438 548.367188 2191.140625 547.84375 L 2182.933594 515.757812 C 2182.769531 515.132812 2182.671875 514.496094 2182.632812 513.847656 C 2182.597656 513.203125 2182.621094 512.558594 2182.710938 511.917969 C 2182.800781 511.277344 2182.953125 510.652344 2183.164062 510.039062 C 2183.378906 509.429688 2183.648438 508.84375 2183.976562 508.285156 C 2184.304688 507.730469 2184.6875 507.207031 2185.117188 506.726562 C 2185.546875 506.242188 2186.023438 505.804688 2186.539062 505.417969 C 2187.054688 505.027344 2187.605469 504.691406 2188.1875 504.410156 C 2188.773438 504.132812 2189.378906 503.910156 2190.003906 503.75 C 2190.628906 503.585938 2191.265625 503.488281 2191.914062 503.453125 C 2192.558594 503.414062 2193.203125 503.445312 2193.84375 503.535156 C 2194.484375 503.625 2195.109375 503.777344 2195.722656 503.992188 C 2196.332031 504.207031 2196.914062 504.480469 2197.472656 504.808594 C 2198.03125 505.136719 2198.550781 505.519531 2199.03125 505.949219 C 2199.511719 506.382812 2199.949219 506.859375 2200.335938 507.375 C 2200.726562 507.894531 2201.058594 508.445312 2201.339844 509.027344 C 2201.617188 509.613281 2201.839844 510.214844 2202 510.84375 L 2210.203125 542.980469 C 2210.363281 543.605469 2210.457031 544.238281 2210.492188 544.886719 C 2210.523438 545.53125 2210.496094 546.171875 2210.402344 546.8125 C 2210.308594 547.449219 2210.152344 548.074219 2209.9375 548.679688 C 2209.71875 549.289062 2209.445312 549.871094 2209.117188 550.425781 C 2208.785156 550.980469 2208.402344 551.496094 2207.972656 551.976562 C 2207.539062 552.457031 2207.0625 552.886719 2206.542969 553.273438 C 2206.027344 553.660156 2205.476562 553.988281 2204.894531 554.265625 C 2204.308594 554.542969 2203.707031 554.761719 2203.078125 554.917969 Z M 2203.078125 554.917969 " fill-opacity="1" fill-rule="nonzero"/><path fill="#e80303" d="M 2550.03125 731.464844 C 2446.253906 731.464844 2367.980469 772.347656 2367.980469 826.59375 C 2367.980469 878.136719 2451.511719 921.722656 2550.03125 921.722656 C 2648.546875 921.722656 2732.128906 878.136719 2732.128906 826.59375 C 2732.128906 775.050781 2648.746094 731.464844 2550.03125 731.464844 Z M 2550.03125 731.464844 " fill-opacity="1" fill-rule="nonzero"/><path fill="#e80303" d="M 2718.421875 1029.132812 L 2618.378906 1029.132812 C 2617.417969 1029.136719 2616.480469 1029.003906 2615.5625 1028.730469 C 2614.640625 1028.457031 2613.78125 1028.0625 2612.976562 1027.539062 C 2612.171875 1027.011719 2611.460938 1026.386719 2610.84375 1025.652344 C 2610.222656 1024.921875 2609.722656 1024.117188 2609.335938 1023.238281 L 2515.980469 809.148438 L 2422.078125 880.839844 L 2410.140625 865.214844 L 2514.011719 785.910156 C 2514.308594 785.683594 2514.617188 785.472656 2514.933594 785.28125 C 2515.253906 785.089844 2515.582031 784.917969 2515.921875 784.765625 C 2516.257812 784.609375 2516.605469 784.476562 2516.957031 784.363281 C 2517.3125 784.246094 2517.671875 784.152344 2518.035156 784.078125 C 2518.398438 784.003906 2518.769531 783.953125 2519.136719 783.921875 C 2519.507812 783.886719 2519.878906 783.878906 2520.25 783.886719 C 2520.621094 783.898438 2520.992188 783.929688 2521.359375 783.980469 C 2521.730469 784.03125 2522.09375 784.105469 2522.453125 784.199219 C 2522.8125 784.289062 2523.167969 784.402344 2523.511719 784.539062 C 2523.859375 784.671875 2524.199219 784.824219 2524.527344 784.996094 C 2524.859375 785.167969 2525.175781 785.355469 2525.484375 785.5625 C 2525.792969 785.773438 2526.089844 785.996094 2526.371094 786.238281 C 2526.65625 786.480469 2526.921875 786.738281 2527.175781 787.007812 C 2527.429688 787.28125 2527.667969 787.566406 2527.886719 787.863281 C 2528.109375 788.164062 2528.3125 788.472656 2528.5 788.796875 C 2528.683594 789.117188 2528.851562 789.449219 2529 789.789062 L 2624.863281 1009.476562 L 2718.46875 1009.476562 Z M 2718.421875 1029.132812 " fill-opacity="1" fill-rule="nonzero"/><g clip-path="url(#c1fa8ba52f)"><path fill="#e80303" d="M 2440.996094 1103.917969 L 2378.644531 1103.917969 C 2378.109375 1103.917969 2377.582031 1103.871094 2377.054688 1103.78125 C 2376.53125 1103.695312 2376.015625 1103.5625 2375.511719 1103.390625 C 2375.007812 1103.21875 2374.519531 1103.007812 2374.050781 1102.757812 C 2373.582031 1102.503906 2373.132812 1102.21875 2372.710938 1101.894531 C 2372.289062 1101.570312 2371.894531 1101.214844 2371.527344 1100.828125 C 2371.164062 1100.4375 2370.832031 1100.023438 2370.535156 1099.582031 C 2370.238281 1099.140625 2369.976562 1098.675781 2369.753906 1098.191406 C 2369.53125 1097.707031 2369.351562 1097.210938 2369.210938 1096.695312 L 2297.125 834.011719 L 2316.09375 828.804688 L 2386.160156 1084.3125 L 2440.996094 1084.3125 Z M 2440.996094 1103.917969 " fill-opacity="1" fill-rule="nonzero"/></g><g clip-path="url(#5bb5be33ca)"><path fill="#e80303" d="M 2012.503906 1033.957031 L 1900.6875 1033.957031 L 1900.6875 1015.019531 L 2000.667969 1015.019531 L 2073.476562 866.1875 L 2137.195312 899.65625 L 2197.835938 792.242188 L 2214.308594 801.570312 L 2144.625 924.933594 L 2081.949219 891.988281 Z M 2012.503906 1033.957031 " fill-opacity="1" fill-rule="nonzero"/></g><path fill="#e80303" d="M 2034.375 397.863281 L 2016.8125 393.128906 C 2016.8125 361.222656 2010.5625 274.355469 1980.550781 255.847656 C 1972.785156 251.113281 1963.507812 251.679688 1952.144531 257.550781 L 1943.671875 240.699219 C 1971.601562 226.164062 1990.207031 236.769531 2000.90625 248.175781 C 2015.863281 264.179688 2026.328125 293.621094 2031.914062 335.660156 C 2031.960938 336.324219 2038.398438 391.519531 2034.375 397.863281 Z M 2034.375 397.863281 " fill-opacity="1" fill-rule="nonzero"/><path fill="#e80303" d="M 2139.890625 422.101562 L 2122.328125 417.367188 C 2122.328125 384.230469 2115.984375 294.285156 2085.453125 275.679688 C 2077.832031 270.949219 2068.789062 271.5625 2057.757812 277.292969 L 2049 260.484375 C 2076.601562 246.285156 2095.015625 256.652344 2105.808594 268.011719 C 2121.050781 284.296875 2131.65625 314.59375 2137.382812 357.957031 C 2137.242188 358.476562 2143.773438 415.710938 2139.890625 422.101562 Z M 2139.890625 422.101562 " fill-opacity="1" fill-rule="nonzero"/><path fill="#e80303" d="M 2288.347656 657.515625 C 2283.449219 657.445312 2278.578125 657.796875 2273.742188 658.582031 C 2268.902344 659.363281 2264.171875 660.5625 2259.542969 662.179688 C 2254.917969 663.792969 2250.46875 665.800781 2246.191406 668.195312 C 2241.917969 670.59375 2237.886719 673.347656 2234.097656 676.453125 C 2231.917969 678.679688 2229.648438 680.855469 2227.328125 682.9375 C 2224.238281 686.289062 2221.492188 689.894531 2219.082031 693.765625 C 2216.675781 697.632812 2214.652344 701.691406 2213.011719 705.941406 C 2211.371094 710.191406 2210.140625 714.558594 2209.324219 719.039062 C 2208.507812 723.523438 2208.117188 728.042969 2208.15625 732.597656 C 2208.15625 773.972656 2244.132812 807.628906 2288.347656 807.628906 C 2332.5625 807.628906 2368.539062 773.972656 2368.539062 732.597656 C 2368.539062 691.222656 2332.609375 657.515625 2288.347656 657.515625 Z M 2288.347656 657.515625 " fill-opacity="1" fill-rule="nonzero"/><path fill="#e80303" d="M 2222.308594 661.445312 C 2227.242188 656.242188 2231.726562 650.671875 2235.753906 644.734375 C 2271.445312 591.859375 2262.972656 523.5 2216.816406 492.351562 C 2216.300781 492.007812 2215.828125 491.613281 2215.398438 491.167969 C 2207.253906 483.074219 2140.601562 448.941406 2074.328125 433.507812 C 2055.929688 429 2037.265625 426.585938 2018.324219 426.265625 C 1964.40625 426.265625 1960.097656 454.671875 1958.679688 464.136719 C 1945.851562 549.0625 2041.285156 643.222656 2070.871094 670.0625 L 2071.488281 670.675781 C 2076.234375 675.878906 2081.519531 680.457031 2087.347656 684.40625 C 2091.113281 686.90625 2095.046875 689.109375 2099.144531 691.023438 C 2103.242188 692.933594 2107.460938 694.53125 2111.796875 695.816406 C 2116.132812 697.101562 2120.539062 698.054688 2125.019531 698.679688 C 2129.496094 699.308594 2133.996094 699.597656 2138.519531 699.554688 C 2145.328125 699.417969 2152.066406 698.683594 2158.746094 697.347656 C 2165.421875 696.015625 2171.929688 694.105469 2178.265625 691.617188 C 2184.601562 689.128906 2190.671875 686.101562 2196.472656 682.539062 C 2202.273438 678.972656 2207.710938 674.925781 2212.792969 670.394531 C 2215.769531 667.203125 2218.941406 664.21875 2222.308594 661.445312 Z M 2188.605469 571.976562 C 2187.84375 572.164062 2187.070312 572.257812 2186.285156 572.261719 C 2185.761719 572.261719 2185.246094 572.21875 2184.730469 572.132812 C 2184.214844 572.050781 2183.710938 571.921875 2183.214844 571.753906 C 2182.722656 571.585938 2182.246094 571.378906 2181.785156 571.132812 C 2181.324219 570.882812 2180.890625 570.601562 2180.476562 570.28125 C 2180.0625 569.964844 2179.679688 569.613281 2179.324219 569.230469 C 2178.96875 568.847656 2178.648438 568.4375 2178.363281 568 C 2178.074219 567.566406 2177.824219 567.109375 2177.613281 566.632812 C 2177.402344 566.15625 2177.230469 565.664062 2177.101562 565.160156 L 2169.195312 534.246094 C 2169.039062 533.644531 2168.941406 533.03125 2168.90625 532.40625 C 2168.871094 531.785156 2168.894531 531.164062 2168.980469 530.546875 C 2169.066406 529.929688 2169.214844 529.328125 2169.417969 528.738281 C 2169.625 528.148438 2169.886719 527.585938 2170.203125 527.050781 C 2170.519531 526.511719 2170.882812 526.011719 2171.296875 525.546875 C 2171.714844 525.078125 2172.171875 524.660156 2172.667969 524.285156 C 2173.167969 523.910156 2173.695312 523.585938 2174.257812 523.316406 C 2174.820312 523.046875 2175.402344 522.832031 2176.007812 522.675781 C 2176.609375 522.519531 2177.222656 522.425781 2177.847656 522.390625 C 2178.46875 522.355469 2179.089844 522.382812 2179.707031 522.472656 C 2180.324219 522.558594 2180.925781 522.707031 2181.515625 522.910156 C 2182.101562 523.117188 2182.664062 523.378906 2183.203125 523.699219 C 2183.738281 524.015625 2184.238281 524.382812 2184.703125 524.796875 C 2185.167969 525.214844 2185.585938 525.671875 2185.960938 526.171875 C 2186.335938 526.671875 2186.65625 527.199219 2186.925781 527.761719 C 2187.195312 528.324219 2187.410156 528.910156 2187.5625 529.511719 L 2195.46875 560.472656 C 2195.621094 561.074219 2195.714844 561.6875 2195.746094 562.308594 C 2195.777344 562.929688 2195.746094 563.546875 2195.65625 564.164062 C 2195.566406 564.78125 2195.417969 565.378906 2195.210938 565.964844 C 2195.003906 566.550781 2194.738281 567.113281 2194.421875 567.648438 C 2194.101562 568.179688 2193.734375 568.679688 2193.316406 569.140625 C 2192.898438 569.601562 2192.441406 570.019531 2191.941406 570.390625 C 2191.445312 570.761719 2190.914062 571.082031 2190.351562 571.347656 C 2189.789062 571.613281 2189.207031 571.824219 2188.605469 571.976562 Z M 2188.605469 571.976562 " fill-opacity="1" fill-rule="nonzero"/><path fill="#e80303" d="M 2522.863281 742.066406 C 2422.882812 742.066406 2347.472656 781.449219 2347.472656 833.714844 C 2347.472656 883.371094 2427.949219 925.359375 2522.863281 925.359375 C 2617.777344 925.359375 2698.300781 883.371094 2698.300781 833.714844 C 2698.300781 784.054688 2617.96875 742.066406 2522.863281 742.066406 Z M 2522.863281 742.066406 " fill-opacity="1" fill-rule="nonzero"/><path fill="#e80303" d="M 2685.09375 1028.84375 L 2588.714844 1028.84375 C 2587.789062 1028.847656 2586.882812 1028.71875 2585.996094 1028.457031 C 2585.113281 1028.195312 2584.28125 1027.8125 2583.507812 1027.308594 C 2582.734375 1026.800781 2582.046875 1026.195312 2581.453125 1025.492188 C 2580.855469 1024.785156 2580.371094 1024.011719 2580.003906 1023.164062 L 2490.058594 816.90625 L 2399.59375 885.976562 L 2388.089844 870.921875 L 2488.164062 794.515625 C 2488.449219 794.296875 2488.746094 794.097656 2489.050781 793.914062 C 2489.359375 793.730469 2489.675781 793.5625 2490.003906 793.414062 C 2490.328125 793.265625 2490.660156 793.136719 2491.003906 793.027344 C 2491.34375 792.917969 2491.6875 792.824219 2492.039062 792.753906 C 2492.390625 792.683594 2492.746094 792.632812 2493.101562 792.601562 C 2493.457031 792.570312 2493.816406 792.558594 2494.175781 792.570312 C 2494.53125 792.578125 2494.890625 792.609375 2495.242188 792.65625 C 2495.597656 792.707031 2495.949219 792.777344 2496.296875 792.867188 C 2496.640625 792.957031 2496.984375 793.066406 2497.316406 793.195312 C 2497.652344 793.324219 2497.976562 793.46875 2498.296875 793.636719 C 2498.613281 793.800781 2498.921875 793.984375 2499.21875 794.183594 C 2499.515625 794.386719 2499.796875 794.601562 2500.070312 794.835938 C 2500.34375 795.066406 2500.601562 795.3125 2500.847656 795.578125 C 2501.089844 795.839844 2501.320312 796.113281 2501.53125 796.402344 C 2501.746094 796.6875 2501.941406 796.988281 2502.121094 797.296875 C 2502.300781 797.609375 2502.460938 797.925781 2502.601562 798.257812 L 2594.960938 1009.910156 L 2685.140625 1009.910156 Z M 2685.09375 1028.84375 " fill-opacity="1" fill-rule="nonzero"/><path fill="#e80303" d="M 2417.820312 1100.894531 L 2357.746094 1100.894531 C 2357.234375 1100.890625 2356.722656 1100.847656 2356.21875 1100.761719 C 2355.710938 1100.679688 2355.214844 1100.550781 2354.730469 1100.386719 C 2354.242188 1100.222656 2353.773438 1100.015625 2353.320312 1099.773438 C 2352.867188 1099.53125 2352.4375 1099.253906 2352.03125 1098.945312 C 2351.625 1098.632812 2351.242188 1098.289062 2350.890625 1097.914062 C 2350.539062 1097.542969 2350.222656 1097.140625 2349.933594 1096.714844 C 2349.648438 1096.289062 2349.398438 1095.84375 2349.183594 1095.378906 C 2348.96875 1094.910156 2348.792969 1094.429688 2348.65625 1093.933594 L 2279.210938 840.859375 L 2297.484375 835.84375 L 2364.988281 1082.003906 L 2417.820312 1082.003906 Z M 2417.820312 1100.894531 " fill-opacity="1" fill-rule="nonzero"/><g clip-path="url(#44e928dfcc)"><path fill="#ffffff" d="M 119.257812 1025.691406 L 6.800781 1025.691406 L 6.800781 1006.644531 L 107.355469 1006.644531 L 180.582031 856.957031 L 244.664062 890.621094 L 305.652344 782.589844 L 322.222656 791.972656 L 252.136719 916.042969 L 189.101562 882.90625 Z M 119.257812 1025.691406 " fill-opacity="1" fill-rule="nonzero"/></g><path fill="#ffffff" d="M 141.253906 385.949219 L 123.589844 381.1875 C 123.589844 349.101562 117.304688 261.734375 87.121094 243.121094 C 79.3125 238.359375 69.980469 238.929688 58.554688 244.832031 L 50.03125 227.882812 C 78.121094 213.269531 96.832031 223.933594 107.59375 235.40625 C 122.636719 251.5 133.160156 281.113281 138.777344 323.390625 C 138.824219 324.058594 145.300781 379.570312 141.253906 385.949219 Z M 141.253906 385.949219 " fill-opacity="1" fill-rule="nonzero"/><path fill="#ffffff" d="M 247.378906 410.328125 L 229.714844 405.566406 C 229.714844 372.238281 223.335938 281.777344 192.625 263.066406 C 184.960938 258.308594 175.867188 258.925781 164.773438 264.6875 L 155.964844 247.785156 C 183.722656 233.503906 202.242188 243.929688 213.097656 255.355469 C 228.429688 271.734375 239.09375 302.203125 244.855469 345.816406 C 244.710938 346.339844 251.28125 403.898438 247.378906 410.328125 Z M 247.378906 410.328125 " fill-opacity="1" fill-rule="nonzero"/><path fill="#ffffff" d="M 396.683594 647.09375 C 391.753906 647.019531 386.859375 647.375 381.992188 648.164062 C 377.128906 648.949219 372.367188 650.15625 367.714844 651.78125 C 363.0625 653.402344 358.585938 655.421875 354.289062 657.832031 C 349.988281 660.246094 345.933594 663.011719 342.121094 666.136719 C 339.933594 668.375 337.648438 670.566406 335.3125 672.660156 C 332.207031 676.027344 329.441406 679.65625 327.023438 683.546875 C 324.601562 687.4375 322.566406 691.519531 320.914062 695.792969 C 319.265625 700.070312 318.027344 704.460938 317.207031 708.96875 C 316.386719 713.476562 315.996094 718.019531 316.03125 722.601562 C 316.03125 764.214844 352.214844 798.066406 396.683594 798.066406 C 441.152344 798.066406 477.335938 764.214844 477.335938 722.601562 C 477.335938 680.992188 441.199219 647.09375 396.683594 647.09375 Z M 396.683594 647.09375 " fill-opacity="1" fill-rule="nonzero"/><path fill="#ffffff" d="M 330.265625 651.042969 C 335.230469 645.808594 339.738281 640.207031 343.789062 634.238281 C 379.6875 581.058594 371.164062 512.308594 324.746094 480.980469 C 324.226562 480.636719 323.75 480.238281 323.316406 479.789062 C 315.125 471.648438 248.089844 437.320312 181.4375 421.800781 C 162.933594 417.265625 144.160156 414.839844 125.113281 414.515625 C 70.886719 414.515625 66.554688 443.082031 65.125 452.605469 C 52.222656 538.019531 148.207031 632.714844 177.960938 659.710938 L 178.582031 660.328125 C 183.351562 665.558594 188.667969 670.160156 194.53125 674.136719 C 198.320312 676.648438 202.277344 678.867188 206.398438 680.789062 C 210.519531 682.714844 214.761719 684.320312 219.121094 685.609375 C 223.480469 686.902344 227.914062 687.863281 232.417969 688.492188 C 236.921875 689.121094 241.449219 689.414062 245.996094 689.371094 C 252.84375 689.234375 259.621094 688.492188 266.335938 687.152344 C 273.050781 685.8125 279.597656 683.890625 285.96875 681.386719 C 292.34375 678.886719 298.449219 675.84375 304.28125 672.257812 C 310.113281 668.671875 315.585938 664.597656 320.699219 660.042969 C 323.691406 656.832031 326.878906 653.832031 330.265625 651.042969 Z M 296.367188 561.0625 C 295.601562 561.25 294.824219 561.34375 294.035156 561.347656 C 293.511719 561.347656 292.988281 561.304688 292.472656 561.21875 C 291.953125 561.132812 291.445312 561.007812 290.949219 560.839844 C 290.453125 560.667969 289.972656 560.460938 289.511719 560.210938 C 289.046875 559.964844 288.609375 559.679688 288.195312 559.359375 C 287.777344 559.035156 287.394531 558.683594 287.035156 558.296875 C 286.679688 557.914062 286.355469 557.503906 286.066406 557.0625 C 285.777344 556.625 285.527344 556.167969 285.316406 555.6875 C 285.101562 555.207031 284.929688 554.714844 284.800781 554.203125 L 276.847656 523.117188 C 276.691406 522.507812 276.59375 521.890625 276.558594 521.265625 C 276.519531 520.640625 276.546875 520.015625 276.632812 519.394531 C 276.71875 518.773438 276.867188 518.167969 277.074219 517.574219 C 277.28125 516.984375 277.542969 516.417969 277.859375 515.875 C 278.179688 515.335938 278.546875 514.832031 278.964844 514.363281 C 279.382812 513.894531 279.839844 513.472656 280.339844 513.097656 C 280.84375 512.71875 281.375 512.394531 281.941406 512.121094 C 282.503906 511.851562 283.09375 511.636719 283.699219 511.480469 C 284.304688 511.324219 284.921875 511.226562 285.550781 511.191406 C 286.175781 511.15625 286.800781 511.183594 287.417969 511.273438 C 288.039062 511.359375 288.648438 511.507812 289.238281 511.714844 C 289.832031 511.921875 290.394531 512.1875 290.9375 512.507812 C 291.476562 512.824219 291.980469 513.195312 292.445312 513.613281 C 292.914062 514.03125 293.335938 514.492188 293.710938 514.992188 C 294.085938 515.496094 294.410156 516.027344 294.683594 516.59375 C 294.953125 517.160156 295.164062 517.746094 295.320312 518.355469 L 303.273438 549.492188 C 303.425781 550.097656 303.519531 550.714844 303.550781 551.339844 C 303.582031 551.964844 303.554688 552.585938 303.464844 553.203125 C 303.371094 553.824219 303.222656 554.425781 303.011719 555.015625 C 302.804688 555.605469 302.539062 556.167969 302.21875 556.707031 C 301.898438 557.246094 301.527344 557.746094 301.109375 558.210938 C 300.6875 558.671875 300.226562 559.09375 299.726562 559.464844 C 299.222656 559.839844 298.691406 560.160156 298.125 560.429688 C 297.5625 560.699219 296.976562 560.90625 296.367188 561.0625 Z M 296.367188 561.0625 " fill-opacity="1" fill-rule="nonzero"/><path fill="#ffffff" d="M 632.542969 732.125 C 531.992188 732.125 456.148438 771.738281 456.148438 824.296875 C 456.148438 874.242188 537.085938 916.472656 632.542969 916.472656 C 728.003906 916.472656 808.988281 874.242188 808.988281 824.296875 C 808.988281 774.355469 728.195312 732.125 632.542969 732.125 Z M 632.542969 732.125 " fill-opacity="1" fill-rule="nonzero"/><path fill="#ffffff" d="M 795.707031 1020.546875 L 698.769531 1020.546875 C 697.839844 1020.550781 696.929688 1020.421875 696.039062 1020.15625 C 695.148438 1019.894531 694.3125 1019.507812 693.535156 1019 C 692.757812 1018.492188 692.066406 1017.886719 691.46875 1017.175781 C 690.867188 1016.464844 690.382812 1015.6875 690.011719 1014.835938 L 599.550781 807.398438 L 508.566406 876.859375 L 497 861.71875 L 597.644531 784.875 C 597.933594 784.65625 598.230469 784.457031 598.539062 784.269531 C 598.847656 784.085938 599.167969 783.917969 599.492188 783.769531 C 599.820312 783.621094 600.15625 783.488281 600.5 783.378906 C 600.84375 783.265625 601.191406 783.175781 601.542969 783.105469 C 601.898438 783.03125 602.253906 782.980469 602.613281 782.949219 C 602.96875 782.917969 603.328125 782.910156 603.691406 782.917969 C 604.050781 782.925781 604.410156 782.957031 604.765625 783.007812 C 605.121094 783.058594 605.476562 783.128906 605.824219 783.21875 C 606.171875 783.308594 606.515625 783.417969 606.851562 783.546875 C 607.1875 783.675781 607.515625 783.824219 607.835938 783.992188 C 608.15625 784.15625 608.464844 784.34375 608.761719 784.542969 C 609.0625 784.746094 609.347656 784.960938 609.621094 785.195312 C 609.894531 785.429688 610.15625 785.679688 610.398438 785.941406 C 610.644531 786.207031 610.875 786.484375 611.089844 786.773438 C 611.304688 787.0625 611.5 787.363281 611.683594 787.675781 C 611.863281 787.988281 612.023438 788.308594 612.167969 788.636719 L 705.054688 1001.503906 L 795.753906 1001.503906 Z M 795.707031 1020.546875 " fill-opacity="1" fill-rule="nonzero"/><g clip-path="url(#e50101176d)"><path fill="#ffffff" d="M 526.898438 1093.011719 L 466.480469 1093.011719 C 465.964844 1093.007812 465.449219 1092.964844 464.941406 1092.878906 C 464.433594 1092.792969 463.933594 1092.667969 463.445312 1092.5 C 462.957031 1092.332031 462.484375 1092.128906 462.03125 1091.886719 C 461.574219 1091.640625 461.140625 1091.363281 460.730469 1091.050781 C 460.320312 1090.734375 459.941406 1090.390625 459.585938 1090.015625 C 459.234375 1089.636719 458.910156 1089.238281 458.621094 1088.808594 C 458.335938 1088.378906 458.082031 1087.929688 457.867188 1087.460938 C 457.652344 1086.992188 457.476562 1086.507812 457.339844 1086.011719 L 387.496094 831.488281 L 405.871094 826.441406 L 473.765625 1074.015625 L 526.898438 1074.015625 Z M 526.898438 1093.011719 " fill-opacity="1" fill-rule="nonzero"/></g><path fill="#ffffff" d="M 1057.671875 1014.421875 L 945.214844 1014.421875 L 945.214844 995.378906 L 1045.765625 995.378906 L 1118.992188 845.691406 L 1183.074219 879.351562 L 1244.0625 771.324219 L 1260.632812 780.703125 L 1190.550781 904.777344 L 1127.515625 871.640625 Z M 1057.671875 1014.421875 " fill-opacity="1" fill-rule="nonzero"/><path fill="#ffffff" d="M 1079.667969 374.683594 L 1062.003906 369.921875 C 1062.003906 337.832031 1055.71875 250.46875 1025.53125 231.851562 C 1017.726562 227.089844 1008.394531 227.664062 996.96875 233.566406 L 988.445312 216.617188 C 1016.535156 202 1035.246094 212.664062 1046.003906 224.140625 C 1061.050781 240.230469 1071.574219 269.84375 1077.191406 312.121094 C 1077.238281 312.789062 1083.714844 368.304688 1079.667969 374.683594 Z M 1079.667969 374.683594 " fill-opacity="1" fill-rule="nonzero"/><path fill="#ffffff" d="M 1185.789062 399.058594 L 1168.125 394.296875 C 1168.125 360.972656 1161.746094 270.511719 1131.039062 251.800781 C 1123.371094 247.039062 1114.277344 247.660156 1103.1875 253.417969 L 1094.378906 236.519531 C 1122.132812 222.234375 1140.65625 232.660156 1151.511719 244.089844 C 1166.839844 260.464844 1177.503906 290.9375 1183.265625 334.546875 C 1183.125 335.070312 1189.695312 392.632812 1185.789062 399.058594 Z M 1185.789062 399.058594 " fill-opacity="1" fill-rule="nonzero"/><path fill="#ffffff" d="M 1335.09375 635.824219 C 1330.167969 635.75 1325.269531 636.109375 1320.40625 636.894531 C 1315.539062 637.683594 1310.78125 638.886719 1306.128906 640.511719 C 1301.472656 642.136719 1296.996094 644.15625 1292.699219 646.566406 C 1288.402344 648.976562 1284.34375 651.746094 1280.535156 654.871094 C 1278.34375 657.105469 1276.058594 659.296875 1273.726562 661.390625 C 1270.617188 664.761719 1267.855469 668.390625 1265.433594 672.28125 C 1263.011719 676.167969 1260.976562 680.253906 1259.328125 684.527344 C 1257.675781 688.800781 1256.441406 693.191406 1255.621094 697.699219 C 1254.796875 702.207031 1254.40625 706.753906 1254.445312 711.335938 C 1254.445312 752.945312 1290.628906 786.796875 1335.09375 786.796875 C 1379.5625 786.796875 1415.746094 752.945312 1415.746094 711.335938 C 1415.746094 669.722656 1379.609375 635.824219 1335.09375 635.824219 Z M 1335.09375 635.824219 " fill-opacity="1" fill-rule="nonzero"/><path fill="#ffffff" d="M 1268.679688 639.777344 C 1273.640625 634.542969 1278.148438 628.9375 1282.199219 622.96875 C 1318.097656 569.789062 1309.574219 501.039062 1263.15625 469.714844 C 1262.636719 469.367188 1262.160156 468.972656 1261.726562 468.523438 C 1253.539062 460.382812 1186.503906 426.054688 1119.847656 410.535156 C 1101.347656 406 1082.574219 403.570312 1063.527344 403.25 C 1009.296875 403.25 1004.964844 431.816406 1003.539062 441.335938 C 990.636719 526.75 1086.617188 621.445312 1116.375 648.441406 L 1116.992188 649.0625 C 1121.765625 654.292969 1127.082031 658.894531 1132.941406 662.867188 C 1136.734375 665.382812 1140.6875 667.597656 1144.808594 669.523438 C 1148.929688 671.445312 1153.171875 673.054688 1157.53125 674.34375 C 1161.894531 675.636719 1166.328125 676.59375 1170.832031 677.226562 C 1175.335938 677.855469 1179.859375 678.148438 1184.410156 678.101562 C 1191.253906 677.964844 1198.035156 677.226562 1204.75 675.886719 C 1211.464844 674.546875 1218.007812 672.625 1224.382812 670.121094 C 1230.757812 667.617188 1236.859375 664.574219 1242.691406 660.988281 C 1248.527344 657.402344 1254 653.332031 1259.109375 648.773438 C 1262.101562 645.566406 1265.292969 642.566406 1268.679688 639.777344 Z M 1234.78125 549.792969 C 1234.015625 549.984375 1233.238281 550.078125 1232.449219 550.078125 C 1231.921875 550.082031 1231.402344 550.039062 1230.882812 549.953125 C 1230.367188 549.867188 1229.859375 549.738281 1229.363281 549.570312 C 1228.863281 549.402344 1228.386719 549.191406 1227.921875 548.945312 C 1227.460938 548.695312 1227.023438 548.410156 1226.605469 548.089844 C 1226.191406 547.769531 1225.804688 547.417969 1225.449219 547.03125 C 1225.089844 546.644531 1224.769531 546.234375 1224.480469 545.796875 C 1224.191406 545.359375 1223.941406 544.898438 1223.726562 544.417969 C 1223.515625 543.941406 1223.34375 543.445312 1223.210938 542.9375 L 1215.261719 511.847656 C 1215.101562 511.242188 1215.003906 510.625 1214.96875 510 C 1214.933594 509.371094 1214.957031 508.75 1215.046875 508.128906 C 1215.132812 507.507812 1215.277344 506.898438 1215.484375 506.308594 C 1215.691406 505.714844 1215.953125 505.148438 1216.273438 504.609375 C 1216.589844 504.070312 1216.957031 503.5625 1217.375 503.097656 C 1217.792969 502.628906 1218.253906 502.207031 1218.753906 501.828125 C 1219.253906 501.453125 1219.789062 501.125 1220.351562 500.855469 C 1220.917969 500.582031 1221.503906 500.367188 1222.109375 500.210938 C 1222.71875 500.054688 1223.335938 499.960938 1223.960938 499.925781 C 1224.585938 499.890625 1225.210938 499.917969 1225.832031 500.003906 C 1226.453125 500.09375 1227.058594 500.242188 1227.652344 500.449219 C 1228.242188 500.65625 1228.808594 500.917969 1229.347656 501.238281 C 1229.886719 501.558594 1230.390625 501.925781 1230.859375 502.347656 C 1231.324219 502.765625 1231.746094 503.222656 1232.121094 503.726562 C 1232.5 504.226562 1232.824219 504.761719 1233.09375 505.328125 C 1233.363281 505.894531 1233.578125 506.480469 1233.734375 507.085938 L 1241.683594 538.222656 C 1241.835938 538.832031 1241.929688 539.445312 1241.960938 540.070312 C 1241.996094 540.695312 1241.964844 541.316406 1241.875 541.9375 C 1241.785156 542.554688 1241.632812 543.160156 1241.425781 543.75 C 1241.214844 544.339844 1240.949219 544.902344 1240.628906 545.441406 C 1240.308594 545.976562 1239.9375 546.476562 1239.519531 546.941406 C 1239.101562 547.40625 1238.640625 547.824219 1238.136719 548.199219 C 1237.636719 548.570312 1237.101562 548.894531 1236.539062 549.160156 C 1235.972656 549.429688 1235.386719 549.640625 1234.78125 549.792969 Z M 1234.78125 549.792969 " fill-opacity="1" fill-rule="nonzero"/><path fill="#ffffff" d="M 1570.957031 720.855469 C 1470.402344 720.855469 1394.558594 760.46875 1394.558594 813.03125 C 1394.558594 862.972656 1475.496094 905.203125 1570.957031 905.203125 C 1666.414062 905.203125 1747.398438 862.972656 1747.398438 813.03125 C 1747.398438 763.085938 1666.605469 720.855469 1570.957031 720.855469 Z M 1570.957031 720.855469 " fill-opacity="1" fill-rule="nonzero"/><path fill="#ffffff" d="M 1734.117188 1009.28125 L 1637.183594 1009.28125 C 1636.253906 1009.285156 1635.34375 1009.152344 1634.453125 1008.890625 C 1633.5625 1008.628906 1632.726562 1008.242188 1631.949219 1007.734375 C 1631.167969 1007.226562 1630.480469 1006.617188 1629.878906 1005.910156 C 1629.28125 1005.199219 1628.792969 1004.417969 1628.421875 1003.566406 L 1537.960938 796.128906 L 1446.980469 865.59375 L 1435.410156 850.453125 L 1536.058594 773.609375 C 1536.34375 773.390625 1536.640625 773.1875 1536.949219 773.003906 C 1537.257812 772.816406 1537.578125 772.652344 1537.90625 772.5 C 1538.234375 772.351562 1538.570312 772.222656 1538.910156 772.109375 C 1539.253906 772 1539.601562 771.910156 1539.957031 771.835938 C 1540.308594 771.765625 1540.664062 771.714844 1541.023438 771.683594 C 1541.382812 771.652344 1541.742188 771.640625 1542.101562 771.652344 C 1542.460938 771.660156 1542.820312 771.691406 1543.175781 771.742188 C 1543.535156 771.789062 1543.886719 771.859375 1544.234375 771.953125 C 1544.585938 772.042969 1544.925781 772.152344 1545.261719 772.28125 C 1545.597656 772.410156 1545.925781 772.558594 1546.246094 772.722656 C 1546.566406 772.890625 1546.875 773.074219 1547.175781 773.277344 C 1547.472656 773.476562 1547.757812 773.695312 1548.03125 773.929688 C 1548.304688 774.164062 1548.566406 774.410156 1548.8125 774.675781 C 1549.058594 774.9375 1549.289062 775.214844 1549.503906 775.503906 C 1549.714844 775.792969 1549.914062 776.09375 1550.09375 776.40625 C 1550.273438 776.71875 1550.4375 777.039062 1550.578125 777.371094 L 1643.46875 990.234375 L 1734.164062 990.234375 Z M 1734.117188 1009.28125 " fill-opacity="1" fill-rule="nonzero"/><g clip-path="url(#581d0fd17e)"><path fill="#ffffff" d="M 1465.308594 1081.742188 L 1404.890625 1081.742188 C 1404.375 1081.742188 1403.863281 1081.699219 1403.355469 1081.613281 C 1402.84375 1081.527344 1402.347656 1081.398438 1401.855469 1081.234375 C 1401.367188 1081.066406 1400.898438 1080.859375 1400.441406 1080.617188 C 1399.988281 1080.375 1399.554688 1080.09375 1399.144531 1079.78125 C 1398.734375 1079.46875 1398.351562 1079.125 1398 1078.746094 C 1397.644531 1078.371094 1397.324219 1077.96875 1397.035156 1077.539062 C 1396.746094 1077.113281 1396.496094 1076.664062 1396.277344 1076.195312 C 1396.0625 1075.726562 1395.886719 1075.242188 1395.75 1074.746094 L 1325.90625 820.21875 L 1344.285156 815.171875 L 1412.175781 1062.746094 L 1465.308594 1062.746094 Z M 1465.308594 1081.742188 " fill-opacity="1" fill-rule="nonzero"/></g><path fill="#ffffff" d="M 2016.667969 1033.21875 L 1904.214844 1033.21875 L 1904.214844 1014.175781 L 2004.765625 1014.175781 L 2077.992188 864.488281 L 2142.074219 898.148438 L 2203.0625 790.121094 L 2219.632812 799.5 L 2149.550781 923.570312 L 2086.511719 890.433594 Z M 2016.667969 1033.21875 " fill-opacity="1" fill-rule="nonzero"/><path fill="#ffffff" d="M 2038.664062 393.480469 L 2021 388.71875 C 2021 356.628906 2014.71875 269.265625 1984.53125 250.648438 C 1976.722656 245.886719 1967.390625 246.457031 1955.964844 252.363281 L 1947.445312 235.414062 C 1975.535156 220.796875 1994.246094 231.460938 2005.003906 242.933594 C 2020.050781 259.027344 2030.570312 288.640625 2036.1875 330.917969 C 2036.238281 331.585938 2042.710938 387.097656 2038.664062 393.480469 Z M 2038.664062 393.480469 " fill-opacity="1" fill-rule="nonzero"/><path fill="#ffffff" d="M 2144.789062 417.855469 L 2127.125 413.09375 C 2127.125 379.765625 2120.746094 289.308594 2090.035156 270.597656 C 2082.371094 265.835938 2073.277344 266.453125 2062.183594 272.214844 L 2053.375 255.3125 C 2081.132812 241.03125 2099.652344 251.457031 2110.507812 262.882812 C 2125.839844 279.261719 2136.503906 309.734375 2142.265625 353.34375 C 2142.121094 353.867188 2148.691406 411.429688 2144.789062 417.855469 Z M 2144.789062 417.855469 " fill-opacity="1" fill-rule="nonzero"/><path fill="#ffffff" d="M 2294.09375 654.621094 C 2289.167969 654.546875 2284.269531 654.902344 2279.402344 655.691406 C 2274.539062 656.480469 2269.78125 657.683594 2265.125 659.308594 C 2260.472656 660.933594 2255.996094 662.949219 2251.699219 665.363281 C 2247.398438 667.773438 2243.34375 670.542969 2239.53125 673.664062 C 2237.34375 675.902344 2235.058594 678.09375 2232.722656 680.1875 C 2229.617188 683.554688 2226.855469 687.1875 2224.433594 691.074219 C 2222.011719 694.964844 2219.976562 699.046875 2218.324219 703.324219 C 2216.675781 707.597656 2215.441406 711.988281 2214.617188 716.496094 C 2213.796875 721.003906 2213.40625 725.550781 2213.441406 730.132812 C 2213.441406 771.742188 2249.625 805.59375 2294.09375 805.59375 C 2338.5625 805.59375 2374.746094 771.742188 2374.746094 730.132812 C 2374.746094 688.519531 2338.609375 654.621094 2294.09375 654.621094 Z M 2294.09375 654.621094 " fill-opacity="1" fill-rule="nonzero"/><path fill="#ffffff" d="M 2227.679688 658.574219 C 2232.640625 653.335938 2237.148438 647.734375 2241.199219 641.765625 C 2277.097656 588.585938 2268.574219 519.835938 2222.15625 488.507812 C 2221.636719 488.164062 2221.160156 487.765625 2220.726562 487.320312 C 2212.539062 479.175781 2145.503906 444.851562 2078.847656 429.328125 C 2060.347656 424.796875 2041.570312 422.367188 2022.523438 422.046875 C 1968.296875 422.046875 1963.964844 450.613281 1962.535156 460.132812 C 1949.632812 545.546875 2045.617188 640.242188 2075.371094 667.238281 L 2075.992188 667.855469 C 2080.761719 673.089844 2086.082031 677.691406 2091.941406 681.664062 C 2095.730469 684.175781 2099.6875 686.394531 2103.808594 688.320312 C 2107.929688 690.242188 2112.171875 691.847656 2116.53125 693.140625 C 2120.894531 694.429688 2125.324219 695.390625 2129.828125 696.023438 C 2134.332031 696.652344 2138.859375 696.945312 2143.40625 696.898438 C 2150.253906 696.761719 2157.035156 696.023438 2163.75 694.683594 C 2170.464844 693.339844 2177.007812 691.417969 2183.382812 688.917969 C 2189.753906 686.414062 2195.859375 683.371094 2201.691406 679.785156 C 2207.523438 676.199219 2212.996094 672.128906 2218.109375 667.570312 C 2221.101562 664.363281 2224.289062 661.363281 2227.679688 658.574219 Z M 2193.78125 568.589844 C 2193.011719 568.777344 2192.234375 568.875 2191.445312 568.875 C 2190.921875 568.875 2190.398438 568.835938 2189.882812 568.75 C 2189.363281 568.664062 2188.855469 568.535156 2188.359375 568.367188 C 2187.863281 568.199219 2187.382812 567.988281 2186.921875 567.742188 C 2186.460938 567.492188 2186.019531 567.207031 2185.605469 566.886719 C 2185.191406 566.566406 2184.804688 566.210938 2184.445312 565.828125 C 2184.089844 565.441406 2183.769531 565.03125 2183.480469 564.59375 C 2183.191406 564.15625 2182.9375 563.695312 2182.726562 563.214844 C 2182.511719 562.734375 2182.339844 562.242188 2182.210938 561.734375 L 2174.257812 530.644531 C 2174.101562 530.039062 2174.003906 529.421875 2173.96875 528.792969 C 2173.933594 528.167969 2173.957031 527.546875 2174.042969 526.925781 C 2174.132812 526.304688 2174.277344 525.695312 2174.484375 525.105469 C 2174.691406 524.511719 2174.953125 523.945312 2175.269531 523.40625 C 2175.589844 522.863281 2175.957031 522.359375 2176.375 521.894531 C 2176.792969 521.425781 2177.25 521.003906 2177.753906 520.625 C 2178.253906 520.246094 2178.785156 519.921875 2179.351562 519.652344 C 2179.917969 519.378906 2180.503906 519.164062 2181.109375 519.007812 C 2181.71875 518.851562 2182.332031 518.753906 2182.960938 518.722656 C 2183.585938 518.6875 2184.210938 518.710938 2184.832031 518.800781 C 2185.453125 518.890625 2186.058594 519.035156 2186.648438 519.246094 C 2187.242188 519.453125 2187.808594 519.714844 2188.347656 520.035156 C 2188.886719 520.355469 2189.390625 520.722656 2189.855469 521.140625 C 2190.324219 521.558594 2190.746094 522.019531 2191.121094 522.523438 C 2191.5 523.023438 2191.820312 523.558594 2192.09375 524.125 C 2192.363281 524.6875 2192.578125 525.277344 2192.730469 525.882812 L 2200.683594 557.019531 C 2200.835938 557.625 2200.929688 558.242188 2200.960938 558.867188 C 2200.992188 559.492188 2200.964844 560.113281 2200.875 560.734375 C 2200.785156 561.351562 2200.632812 561.957031 2200.425781 562.546875 C 2200.214844 563.136719 2199.949219 563.699219 2199.628906 564.234375 C 2199.308594 564.773438 2198.9375 565.273438 2198.519531 565.738281 C 2198.101562 566.203125 2197.640625 566.621094 2197.136719 566.996094 C 2196.636719 567.367188 2196.101562 567.6875 2195.535156 567.957031 C 2194.972656 568.226562 2194.386719 568.4375 2193.78125 568.589844 Z M 2193.78125 568.589844 " fill-opacity="1" fill-rule="nonzero"/><path fill="#ffffff" d="M 2529.957031 739.652344 C 2429.402344 739.652344 2353.558594 779.265625 2353.558594 831.828125 C 2353.558594 881.769531 2434.496094 924 2529.957031 924 C 2625.414062 924 2706.398438 881.769531 2706.398438 831.828125 C 2706.398438 781.882812 2625.605469 739.652344 2529.957031 739.652344 Z M 2529.957031 739.652344 " fill-opacity="1" fill-rule="nonzero"/><path fill="#ffffff" d="M 2693.117188 1028.078125 L 2596.179688 1028.078125 C 2595.253906 1028.078125 2594.34375 1027.949219 2593.449219 1027.6875 C 2592.558594 1027.421875 2591.726562 1027.039062 2590.945312 1026.53125 C 2590.167969 1026.023438 2589.480469 1025.414062 2588.878906 1024.703125 C 2588.277344 1023.996094 2587.792969 1023.214844 2587.421875 1022.363281 L 2496.960938 814.925781 L 2405.976562 884.390625 L 2394.410156 869.25 L 2495.058594 792.40625 C 2495.34375 792.1875 2495.640625 791.984375 2495.949219 791.800781 C 2496.257812 791.613281 2496.578125 791.445312 2496.90625 791.296875 C 2497.234375 791.148438 2497.566406 791.019531 2497.910156 790.90625 C 2498.253906 790.796875 2498.601562 790.703125 2498.953125 790.632812 C 2499.308594 790.5625 2499.664062 790.511719 2500.023438 790.480469 C 2500.382812 790.449219 2500.742188 790.4375 2501.101562 790.445312 C 2501.460938 790.457031 2501.820312 790.488281 2502.175781 790.535156 C 2502.53125 790.585938 2502.886719 790.65625 2503.234375 790.746094 C 2503.582031 790.839844 2503.925781 790.949219 2504.261719 791.078125 C 2504.597656 791.207031 2504.925781 791.355469 2505.246094 791.519531 C 2505.566406 791.6875 2505.875 791.871094 2506.171875 792.070312 C 2506.472656 792.273438 2506.757812 792.492188 2507.03125 792.726562 C 2507.304688 792.960938 2507.566406 793.207031 2507.8125 793.472656 C 2508.058594 793.734375 2508.285156 794.011719 2508.5 794.300781 C 2508.714844 794.589844 2508.914062 794.890625 2509.09375 795.203125 C 2509.273438 795.515625 2509.433594 795.835938 2509.578125 796.167969 L 2602.464844 1009.03125 L 2693.164062 1009.03125 Z M 2693.117188 1028.078125 " fill-opacity="1" fill-rule="nonzero"/><g clip-path="url(#6958d98beb)"><path fill="#ffffff" d="M 2424.308594 1100.539062 L 2363.890625 1100.539062 C 2363.375 1100.539062 2362.863281 1100.492188 2362.351562 1100.40625 C 2361.84375 1100.320312 2361.34375 1100.195312 2360.855469 1100.027344 C 2360.367188 1099.863281 2359.894531 1099.65625 2359.441406 1099.414062 C 2358.984375 1099.171875 2358.554688 1098.890625 2358.144531 1098.578125 C 2357.734375 1098.265625 2357.351562 1097.917969 2356.996094 1097.542969 C 2356.644531 1097.167969 2356.324219 1096.765625 2356.035156 1096.335938 C 2355.746094 1095.910156 2355.492188 1095.460938 2355.277344 1094.992188 C 2355.0625 1094.523438 2354.886719 1094.039062 2354.75 1093.539062 L 2284.90625 839.015625 L 2303.28125 833.96875 L 2371.175781 1081.542969 L 2424.308594 1081.542969 Z M 2424.308594 1100.539062 " fill-opacity="1" fill-rule="nonzero"/></g></svg>