<svg width="3061.5" height="1133.999944" xmlns="http://www.w3.org/2000/svg" version="1.0" preserveAspectRatio="xMidYMid meet" zoomAndPan="magnify">
 <defs>
  <g id="svg_1"/>
  <clipPath id="91dffa9c6d">
   <path id="svg_2" clip-rule="nonzero" d="m1343.21875,98.83984l655.39453,0l0,736.38282l-655.39453,0l0,-736.38282zm0,0"/>
  </clipPath>
  <clipPath id="96f649d813">
   <path id="svg_3" clip-rule="nonzero" d="m417.60547,133.33984l655.39453,0l0,736.37891l-655.39453,0l0,-736.37891zm0,0"/>
  </clipPath>
  <clipPath id="49c521e4f0">
   <path id="svg_4" clip-rule="nonzero" d="m550,833l165,0l0,300.90625l-165,0l0,-300.90625zm0,0"/>
  </clipPath>
  <clipPath id="21834597a5">
   <path id="svg_5" clip-rule="nonzero" d="m529,841l160,0l0,292.90625l-160,0l0,-292.90625zm0,0"/>
  </clipPath>
  <clipPath id="24d5fb000b">
   <path id="svg_6" clip-rule="nonzero" d="m1469,815l164,0l0,311.92188l-164,0l0,-311.92188zm0,0"/>
  </clipPath>
  <clipPath id="dec5490c49">
   <path id="svg_7" clip-rule="nonzero" d="m1448,837l160,0l0,296.90625l-160,0l0,-296.90625zm0,0"/>
  </clipPath>
  <clipPath id="4a8289d7f9">
   <path id="svg_8" clip-rule="nonzero" d="m2332.37109,110.30859l655.39063,0l0,736.38282l-655.39063,0l0,-736.38282zm0,0"/>
  </clipPath>
  <clipPath id="29eda87b44">
   <path id="svg_9" clip-rule="nonzero" d="m2400,822l165,0l0,311.90625l-165,0l0,-311.90625zm0,0"/>
  </clipPath>
  <clipPath id="e1022efa3d">
   <path id="svg_10" clip-rule="nonzero" d="m1943.11328,780l359.88672,0l0,277l-359.88672,0l0,-277zm0,0"/>
  </clipPath>
  <clipPath id="26fbdbdd2f">
   <path id="svg_11" clip-rule="nonzero" d="m2376,830l159,0l0,302.92578l-159,0l0,-302.92578zm0,0"/>
  </clipPath>
  <clipPath id="8ed7cb5ae8">
   <path id="svg_12" clip-rule="nonzero" d="m2386,822l160,0l0,305.45703l-160,0l0,-305.45703zm0,0"/>
  </clipPath>
  <clipPath id="85bfcaec8c">
   <path id="svg_13" clip-rule="nonzero" d="m104.05078,780l364.94922,0l0,281l-364.94922,0l0,-281zm0,0"/>
  </clipPath>
  <clipPath id="2d907c4326">
   <path id="svg_14" clip-rule="nonzero" d="m543,830l162,0l0,303.90625l-162,0l0,-303.90625zm0,0"/>
  </clipPath>
  <clipPath id="6931711525">
   <path id="svg_15" clip-rule="nonzero" d="m1452,824l162,0l0,306.95703l-162,0l0,-306.95703zm0,0"/>
  </clipPath>
 </defs>
 <g>
  <title>Layer 1</title>
  <path id="svg_16" fill-rule="nonzero" d="m1671.08594,106.82813l-319.31641,159.65625l319.31641,159.66015l319.3164,-159.66015l-319.3164,-159.65625zm0,0" fill="#f9f9f9"/>
  <path id="svg_17" fill-rule="nonzero" d="m1671.08594,426.14063l0,399.14843l319.3164,-159.66015l0,-399.14453l-319.3164,159.65625zm0,0" fill="#f1d903"/>
  <path id="svg_26" stroke-miterlimit="4" stroke-width="11" stroke="#000000" d="m1862.81634,1050.90623l155.35537,0" fill="none"/>
  <path id="svg_27" stroke-miterlimit="4" stroke-width="11" stroke="#f1d903" d="m903.37891,1029.81647l241.19515,0" fill="none"/>
  <path id="svg_30" fill-rule="nonzero" d="m749.47266,458.64063l0,399.14843l-319.32032,-159.66015l0,-399.14453l319.32032,159.65625zm0,0" fill="#cccccc"/>
  <path id="svg_39" fill-rule="nonzero" d="m1031.55078,1062.52734l-114.3164,0c-1.09375,0.00391 -2.16797,-0.14843 -3.21875,-0.46093c-1.05079,-0.3086 -2.03516,-0.76172 -2.95313,-1.36328c-0.91797,-0.59766 -1.73047,-1.31641 -2.44141,-2.15235c-0.70703,-0.83594 -1.28125,-1.75781 -1.71875,-2.76172l-106.67968,-244.63672l-107.30078,81.92188l-13.64454,-17.85547l118.69922,-90.625c0.33594,-0.25781 0.6875,-0.49609 1.05078,-0.71484c0.36719,-0.21875 0.74219,-0.41407 1.12891,-0.58985c0.38672,-0.17578 0.78125,-0.33203 1.18359,-0.46093c0.40625,-0.13282 0.81641,-0.23829 1.23047,-0.32422c0.41797,-0.08594 0.83985,-0.14453 1.26172,-0.1836c0.42188,-0.03515 0.84766,-0.04687 1.26953,-0.03515c0.42578,0.01172 0.84766,0.04687 1.26953,0.10547c0.42188,0.05859 0.83594,0.14062 1.25,0.25c0.41016,0.10546 0.8125,0.23437 1.21094,0.38671c0.39453,0.15235 0.78125,0.32813 1.16016,0.52344c0.375,0.19531 0.74219,0.41406 1.09375,0.64844c0.35156,0.23828 0.6875,0.49609 1.01172,0.77344c0.32422,0.27343 0.6289,0.5664 0.91797,0.8789c0.28906,0.3086 0.5625,0.63672 0.8164,0.97657c0.25,0.34375 0.48438,0.69921 0.69531,1.0664c0.21485,0.36719 0.40625,0.7461 0.57422,1.13672l109.54297,251.03906l106.96485,0l-0.0586,22.45703zm0,0" fill="#f1d903"/>
  <path id="svg_48" fill-rule="nonzero" d="m929.46484,658.19141l-110.13671,0c-1.05469,0.0039 -2.08985,-0.14453 -3.10157,-0.44532c-1.01172,-0.29687 -1.96093,-0.73828 -2.84765,-1.3125c-0.88282,-0.57812 -1.66407,-1.26953 -2.34766,-2.07421c-0.68359,-0.80469 -1.23437,-1.69141 -1.65625,-2.66016l-102.77734,-235.6875l-103.375,78.92187l-13.14453,-17.20312l114.35546,-87.30469c0.32422,-0.25 0.66407,-0.48047 1.01172,-0.6914c0.35157,-0.21094 0.71485,-0.39844 1.08594,-0.57032c0.375,-0.16797 0.75391,-0.3164 1.14453,-0.4414c0.39063,-0.125 0.78516,-0.23047 1.1836,-0.3125c0.40234,-0.08203 0.80859,-0.14063 1.21484,-0.17578c0.40625,-0.03516 0.81641,-0.04688 1.22656,-0.03516c0.40625,0.01172 0.81641,0.04297 1.21875,0.10156c0.40625,0.0586 0.8086,0.13672 1.20313,0.23828c0.39843,0.10547 0.78515,0.23047 1.16797,0.375c0.38281,0.14844 0.7539,0.31641 1.11718,0.50391c0.36328,0.19141 0.71485,0.39844 1.05469,0.62891c0.33984,0.22656 0.66406,0.47656 0.97656,0.74218c0.3086,0.26563 0.60547,0.54688 0.88282,0.84766c0.28125,0.29687 0.54296,0.61328 0.78515,0.94141c0.24219,0.32812 0.46875,0.67187 0.67188,1.02343c0.20703,0.35547 0.39062,0.72266 0.55078,1.09766l105.53906,241.85156l103.05078,0l-0.05469,21.64063zm0,0" fill="#f1d903"/>
  <path id="svg_51" fill-rule="nonzero" d="m1155.67969,1048.62891l-131.44531,0l0,-22.26172l117.53125,0l85.59375,-174.96485l74.90234,39.34766l71.28906,-126.27344l19.36719,10.96485l-81.91797,145.02343l-73.67969,-38.73046l-81.64062,166.89453zm0,0" fill="#1eab01"/>
  <g id="svg_58" clip-path="url(#24d5fb000b)">
   <path id="svg_59" fill-rule="nonzero" d="m1632.16016,1127.32031l-70.6211,0c-0.60156,-0.0039 -1.20312,-0.05468 -1.79687,-0.15625c-0.59766,-0.09765 -1.17969,-0.24609 -1.75,-0.4414c-0.57031,-0.19532 -1.1211,-0.4336 -1.65625,-0.71875c-0.53125,-0.28516 -1.03516,-0.60938 -1.51563,-0.97657c-0.48047,-0.36718 -0.92578,-0.76953 -1.33984,-1.21093c-0.41406,-0.4375 -0.78906,-0.91016 -1.125,-1.41016c-0.33594,-0.5 -0.63281,-1.02344 -0.88281,-1.57422c-0.25391,-0.54687 -0.45703,-1.11328 -0.61719,-1.69531l-81.64063,-297.50781l21.48047,-5.89844l79.35938,289.38281l62.10547,0l0,22.20703zm0,0" fill="#1eab01"/>
  </g>
  <path id="svg_60" fill-rule="nonzero" d="m1144.01172,1064.32422l-127.76953,0l0,-21.63672l114.24609,0l83.19531,-170.07422l72.8125,38.2461l69.29297,-122.73829l18.82422,10.65625l-79.625,140.96875l-71.62109,-37.65234l-79.35547,162.23047zm0,0" fill="#1eab01"/>
  <path id="svg_66" fill-rule="nonzero" d="m2006.57813,760.48047l-110.13282,0c-1.05859,0.00391 -2.09375,-0.14453 -3.10547,-0.44141c-1.01171,-0.30078 -1.96093,-0.73828 -2.84375,-1.3164c-0.88281,-0.57422 -1.66796,-1.26563 -2.35156,-2.07422c-0.67969,-0.80469 -1.23047,-1.69141 -1.65625,-2.66016l-102.77734,-235.6875l-103.3711,78.92578l-13.14843,-17.20312l114.35547,-87.3086c0.32421,-0.24609 0.66406,-0.47656 1.01562,-0.6875c0.35156,-0.21093 0.71094,-0.40234 1.08594,-0.57031c0.37109,-0.16797 0.7539,-0.3164 1.14062,-0.44531c0.39063,-0.125 0.78516,-0.22656 1.1875,-0.30859c0.40235,-0.08204 0.80469,-0.14063 1.21094,-0.17579c0.41016,-0.03515 0.81641,-0.04687 1.22656,-0.03515c0.41016,0.00781 0.81641,0.04297 1.22266,0.10156c0.40625,0.05469 0.80469,0.13672 1.20312,0.23828c0.39454,0.10156 0.78516,0.22656 1.16797,0.375c0.37891,0.14453 0.75391,0.3125 1.11719,0.50391c0.36328,0.1875 0.71094,0.39844 1.05078,0.625c0.33985,0.23047 0.66406,0.47656 0.97656,0.74219c0.3125,0.26562 0.60547,0.55078 0.88672,0.84765c0.27735,0.30078 0.53907,0.61328 0.78125,0.94531c0.2461,0.32813 0.46875,0.66797 0.67578,1.02344c0.20313,0.35547 0.38672,0.71875 0.55079,1.09375l105.53515,241.85547l103.05078,0l-0.05468,21.63672zm0,0" fill="#1eab01"/>
  <g id="svg_67" clip-path="url(#dec5490c49)">
   <path id="svg_68" fill-rule="nonzero" d="m1607.16406,1140.8125l-68.64453,0c-0.58594,-0.00391 -1.16797,-0.05078 -1.75,-0.14844c-0.57812,-0.09765 -1.14453,-0.24218 -1.69922,-0.42968c-0.55468,-0.19141 -1.08984,-0.42579 -1.60937,-0.69922c-0.51563,-0.27735 -1.00781,-0.59375 -1.47266,-0.95313c-0.46484,-0.35547 -0.89844,-0.74609 -1.30078,-1.17187c-0.40234,-0.42969 -0.76953,-0.88672 -1.09766,-1.3711c-0.32421,-0.48828 -0.61328,-0.99609 -0.85546,-1.53125c-0.2461,-0.53125 -0.44532,-1.08203 -0.60157,-1.64843l-79.35547,-289.1836l20.87891,-5.73437l77.14063,281.28906l60.36718,0l0,21.58203zm0,0" fill="#1eab01"/>
  </g>
  <path id="svg_70" fill-rule="nonzero" d="m2660.23438,437.60938l0,399.14843l319.32031,-159.66015l0,-399.14453l-319.32031,159.65625zm0,0" fill="#1eab01"/>
  <path id="svg_93" stroke-miterlimit="4" stroke-width="11" stroke="#1eab01" d="m1833.27343,1022.20702l241.19905,0" fill="none"/>
  <path id="svg_94" stroke-miterlimit="4" stroke-width="28" stroke="#000000" d="m977.8672,1044.45704l84.93353,0" fill="none"/>
  <path id="svg_95" stroke-miterlimit="4" stroke-width="31" stroke="#000000" d="m2074.92187,595.84764l264.38653,0" fill="none"/>
  <path id="svg_115" fill-rule="nonzero" d="m1217.77734,745.49609l-129.53906,0l0,-21.92968l115.83203,0l84.34766,-172.35547l73.82031,38.75781l70.25391,-124.38672l19.08594,10.79688l-80.73047,142.86328l-72.61328,-38.15625l-80.45704,164.41015zm0,0" fill="#000000"/>
  <path id="svg_124" stroke-miterlimit="4" stroke-width="15" stroke="#1eab01" d="m1798.62886,1052.32428l151.96877,1.41406" fill="none"/>
  <path id="svg_125" stroke-miterlimit="4" stroke-width="15" stroke="#e80303" d="m1928.92584,1053.73831l155.60539,-1.41406" fill="none"/>
  <path id="svg_126" stroke-miterlimit="4" stroke-width="15" stroke="#f1d903" d="m884.99606,1053.73832l151.80854,7.04296" fill="none"/>
  <path id="svg_127" stroke-miterlimit="4" stroke-width="15" stroke="#1eab01" d="m1023.49999,1060.78129l121.07414,0" fill="none"/>
  <text font-style="italic" font-weight="bold" xml:space="preserve" text-anchor="start" font-family="'Antonio'" font-size="250" stroke-width="2" id="svg_138" y="685.50354" x="454.17102" fill="#333333">n</text>
  <text font-style="italic" font-weight="bold" xml:space="preserve" text-anchor="start" font-family="'Antonio'" font-size="250" stroke-width="2" id="svg_140" y="605.50354" x="916.17102" fill="#bf005f">E</text>
  <text font-style="italic" font-weight="bold" xml:space="preserve" text-anchor="start" font-family="'Antonio'" font-size="250" stroke-width="2" id="svg_141" y="395.50354" x="1354.17102" fill="#007f00">R</text>
  <text font-style="italic" font-weight="bold" xml:space="preserve" text-anchor="start" font-family="'Antonio'" font-size="250" stroke-width="2" id="svg_142" y="611.50354" x="1774.17102" fill="#00007f">Y</text>
  <text font-style="italic" font-weight="bold" xml:space="preserve" text-anchor="start" font-family="'Antonio'" font-size="250" stroke-width="2" id="svg_143" y="675.50354" x="2786.17102" fill="#7f0000">S</text>
 </g>
</svg>